<svg id="svg" version="1.1" xmlns="http://www.w3.org/2000/svg" xmlns:xlink="http://www.w3.org/1999/xlink" width="400" height="180.31088082901553" viewBox="0, 0, 400,180.31088082901553"><g id="svgg"><path id="path0" d="M52.209 17.147 C 47.663 17.301,44.715 17.567,43.463 17.938 C 43.016 18.070,41.839 18.265,40.848 18.372 C 33.733 19.138,33.022 19.264,31.780 19.976 C 30.990 20.430,30.284 20.657,28.855 20.918 C 27.746 21.120,26.866 21.471,26.037 22.043 C 25.652 22.308,24.652 22.785,23.814 23.104 C 22.776 23.499,22.085 23.893,21.646 24.341 C 21.291 24.703,20.665 25.156,20.255 25.349 C 19.844 25.541,19.375 25.922,19.212 26.194 C 19.050 26.467,18.595 26.948,18.202 27.264 C 17.738 27.636,17.271 28.287,16.872 29.113 C 16.534 29.814,16.106 30.550,15.922 30.748 C 15.126 31.605,14.754 34.015,15.337 34.543 C 15.807 34.968,19.676 34.625,21.551 33.992 C 22.658 33.618,26.631 33.228,33.544 32.814 C 40.616 32.391,42.361 32.264,43.192 32.107 C 48.443 31.119,64.548 30.951,65.951 31.870 C 66.655 32.332,66.510 34.733,65.680 36.339 C 65.526 36.637,65.334 37.022,65.252 37.196 C 65.171 37.369,65.024 37.671,64.926 37.866 C 64.748 38.220,64.437 39.332,64.258 40.256 C 64.206 40.525,64.050 40.840,63.912 40.954 C 63.774 41.069,63.661 41.238,63.661 41.330 C 63.661 41.422,63.458 41.797,63.210 42.161 C 62.962 42.526,62.759 42.966,62.759 43.138 C 62.759 43.310,62.647 43.717,62.510 44.043 C 62.373 44.368,62.160 44.959,62.035 45.356 C 61.910 45.753,61.637 46.321,61.427 46.617 C 61.033 47.175,60.775 47.792,60.303 49.298 C 60.152 49.779,59.719 50.794,59.341 51.552 C 58.963 52.310,58.549 53.336,58.421 53.832 C 58.158 54.847,57.603 56.011,57.145 56.509 C 56.977 56.692,56.621 57.544,56.353 58.403 C 56.086 59.262,55.689 60.248,55.471 60.595 C 54.912 61.486,54.531 62.359,54.290 63.300 C 53.909 64.789,53.504 66.005,53.391 66.005 C 53.166 66.005,52.669 67.054,52.138 68.653 C 51.839 69.553,51.362 70.686,51.079 71.169 C 50.566 72.043,49.955 73.680,49.955 74.181 C 49.955 74.442,49.193 76.003,48.506 77.150 C 48.310 77.477,48.073 78.045,47.980 78.412 C 47.887 78.780,47.737 79.364,47.645 79.711 C 47.554 80.059,47.216 80.818,46.893 81.399 C 46.571 81.980,46.164 83.045,45.988 83.766 C 45.812 84.487,45.444 85.512,45.170 86.046 C 44.111 88.105,43.963 88.450,43.713 89.430 C 43.442 90.496,42.983 91.536,42.606 91.940 C 42.482 92.072,42.381 92.205,42.381 92.235 C 42.381 93.101,40.963 97.219,40.482 97.751 C 40.345 97.903,40.107 98.511,39.953 99.104 C 39.438 101.083,38.912 102.500,38.583 102.795 C 38.303 103.047,37.511 105.714,37.511 106.405 C 37.511 106.802,36.876 108.123,36.429 108.656 C 36.154 108.984,35.556 110.708,35.239 112.083 C 35.171 112.381,34.834 113.186,34.492 113.873 C 33.860 115.138,33.363 116.722,33.363 117.470 C 33.363 118.059,32.830 119.553,32.356 120.289 C 32.132 120.636,31.864 121.244,31.759 121.641 C 31.518 122.559,30.831 125.301,30.709 125.834 C 30.658 126.057,30.560 126.240,30.492 126.240 C 30.120 126.240,29.504 128.285,29.233 130.419 C 29.138 131.167,28.840 132.123,28.448 132.944 C 28.101 133.671,27.727 134.711,27.618 135.257 C 27.509 135.803,27.293 136.898,27.138 137.692 C 26.737 139.747,26.427 140.937,25.917 142.381 C 25.310 144.098,24.946 149.185,25.242 151.799 C 25.518 154.236,25.576 154.465,26.035 154.962 C 26.426 155.383,27.383 157.183,27.763 158.210 C 27.864 158.486,28.091 158.764,28.266 158.828 C 28.441 158.893,28.625 158.997,28.674 159.059 C 28.724 159.121,29.069 159.356,29.441 159.582 C 29.813 159.808,30.117 160.068,30.117 160.159 C 30.117 160.250,30.239 160.325,30.388 160.325 C 30.537 160.325,30.658 160.432,30.658 160.563 C 30.658 160.841,32.098 161.531,33.007 161.689 C 33.791 161.825,34.467 162.057,35.618 162.585 C 37.297 163.355,40.194 163.608,40.922 163.048 C 41.355 162.715,41.359 162.683,41.514 158.047 C 41.683 153.004,41.948 150.037,42.294 149.324 C 42.531 148.833,42.736 147.698,43.188 144.364 C 43.748 140.235,44.077 138.718,44.556 138.052 C 44.753 137.779,45.266 135.653,45.267 135.107 C 45.268 133.906,46.103 130.345,46.618 129.342 C 46.981 128.636,47.603 126.195,47.615 125.428 C 47.629 124.551,48.071 122.958,48.515 122.182 C 48.949 121.425,49.161 120.670,49.401 119.026 C 49.737 116.729,50.253 114.598,50.581 114.157 C 51.080 113.486,51.427 112.249,51.946 109.288 C 52.122 108.283,52.513 107.263,52.843 106.943 C 53.001 106.790,53.425 105.103,53.567 104.058 C 53.814 102.250,54.410 99.966,54.744 99.549 C 55.026 99.197,55.283 98.351,55.649 96.573 C 56.135 94.210,56.153 94.156,57.417 91.202 C 57.578 90.827,57.710 90.294,57.710 90.018 C 57.710 89.560,57.860 88.926,58.466 86.835 C 58.581 86.438,58.766 85.992,58.877 85.843 C 59.325 85.241,59.563 84.461,60.251 81.335 C 60.372 80.789,60.782 79.678,61.164 78.866 C 61.545 78.054,61.858 77.228,61.858 77.031 C 61.858 76.147,62.701 72.858,62.928 72.858 C 63.238 72.858,63.966 70.768,64.403 68.620 C 64.524 68.025,64.804 67.214,65.024 66.817 C 65.517 65.928,65.895 64.685,66.176 63.030 C 66.404 61.687,66.781 60.615,67.288 59.867 C 67.625 59.371,68.149 57.847,68.528 56.267 C 68.658 55.721,68.938 54.991,69.150 54.644 C 69.737 53.682,69.928 53.169,70.340 51.448 C 70.549 50.577,70.958 49.437,71.251 48.915 C 71.835 47.872,72.179 46.941,72.666 45.085 C 72.843 44.411,73.162 43.616,73.374 43.318 C 73.586 43.020,73.760 42.690,73.760 42.584 C 73.760 42.479,73.873 42.126,74.012 41.801 C 74.150 41.475,74.365 40.762,74.489 40.216 C 74.752 39.060,75.163 38.107,75.611 37.610 C 75.786 37.416,76.061 36.808,76.222 36.258 C 77.889 30.560,76.977 30.885,91.975 30.651 C 102.060 30.495,102.730 30.442,105.320 29.601 C 105.965 29.391,106.688 29.219,106.928 29.218 C 107.943 29.212,111.836 28.425,112.353 28.120 C 113.620 27.374,116.129 26.510,117.032 26.510 C 117.208 26.510,117.709 26.205,118.144 25.831 C 119.041 25.063,120.099 24.527,120.721 24.527 C 121.157 24.527,122.092 23.904,122.092 23.614 C 122.092 23.349,122.692 22.723,122.946 22.723 C 123.217 22.723,124.431 21.967,124.434 21.796 C 124.441 21.452,123.206 21.300,117.313 20.923 C 111.959 20.580,108.686 20.237,106.731 19.813 C 105.757 19.602,102.789 19.361,98.287 19.127 C 94.251 18.917,89.969 18.610,87.987 18.388 C 87.132 18.293,86.053 18.215,85.588 18.215 C 85.123 18.215,84.199 18.099,83.534 17.958 C 79.891 17.184,63.600 16.763,52.209 17.147 M280.343 17.263 C 279.676 17.393,278.903 17.730,278.539 18.048 C 278.341 18.223,277.629 18.626,276.957 18.946 C 276.178 19.316,275.624 19.714,275.430 20.043 C 275.262 20.327,275.041 20.562,274.939 20.566 C 274.836 20.570,274.468 20.906,274.121 21.311 C 273.774 21.717,273.330 22.180,273.134 22.341 C 272.263 23.056,269.612 25.951,269.612 26.186 C 269.612 26.396,269.330 26.674,268.591 27.194 C 268.277 27.414,267.845 27.957,267.631 28.399 C 267.417 28.841,267.043 29.388,266.801 29.615 C 266.558 29.842,266.074 30.581,265.725 31.258 C 265.376 31.936,264.687 32.886,264.195 33.370 C 263.703 33.855,263.300 34.359,263.300 34.492 C 263.300 34.624,262.976 35.050,262.579 35.437 C 262.182 35.825,261.858 36.211,261.858 36.296 C 261.858 36.643,260.741 38.664,260.153 39.383 C 259.805 39.807,259.389 40.470,259.227 40.857 C 259.065 41.244,258.778 41.695,258.589 41.859 C 258.277 42.130,258.012 42.570,256.965 44.557 C 256.778 44.911,256.483 45.357,256.309 45.549 C 255.852 46.053,255.365 46.844,255.365 47.082 C 255.365 47.440,254.461 49.105,254.036 49.530 C 253.653 49.913,253.398 50.356,252.805 51.668 C 252.671 51.966,252.268 52.657,251.911 53.204 C 251.553 53.751,251.125 54.598,250.959 55.086 C 250.793 55.574,250.387 56.344,250.056 56.796 C 249.726 57.249,249.330 57.985,249.177 58.431 C 248.710 59.799,248.366 60.523,248.064 60.773 C 247.769 61.018,247.041 62.487,246.811 63.300 C 246.626 63.958,246.122 64.953,245.781 65.337 C 245.495 65.660,245.320 66.094,244.651 68.144 C 244.477 68.676,244.059 69.496,243.720 69.967 C 243.382 70.438,242.973 71.261,242.811 71.796 C 242.369 73.258,241.946 74.300,241.794 74.300 C 241.720 74.301,241.659 74.396,241.659 74.512 C 241.659 74.629,241.551 74.852,241.418 75.008 C 241.286 75.165,241.068 75.780,240.933 76.375 C 240.701 77.405,240.182 78.641,239.230 80.433 C 238.993 80.879,238.696 81.691,238.572 82.236 C 238.447 82.782,238.075 83.756,237.745 84.400 C 237.415 85.045,236.934 86.344,236.676 87.286 C 236.419 88.228,236.163 89.161,236.107 89.360 C 236.052 89.558,235.860 89.964,235.682 90.261 C 235.102 91.230,234.764 92.049,234.604 92.876 C 234.221 94.863,234.111 95.218,233.514 96.402 C 233.166 97.091,232.777 98.183,232.649 98.828 C 232.226 100.974,231.746 102.670,231.429 103.141 C 231.043 103.716,230.664 104.748,230.662 105.230 C 230.659 106.200,229.762 109.450,229.109 110.854 C 228.870 111.369,228.674 111.932,228.674 112.106 C 228.674 113.408,227.753 117.191,227.323 117.656 C 226.858 118.157,226.443 119.014,226.137 120.108 C 225.936 120.824,224.664 122.802,224.301 122.964 C 224.227 122.997,224.166 123.134,224.166 123.269 C 224.166 123.404,223.771 123.905,223.289 124.381 C 222.806 124.858,222.242 125.583,222.034 125.992 C 221.822 126.410,221.377 126.901,221.018 127.113 C 220.666 127.320,220.379 127.615,220.379 127.767 C 220.379 127.919,220.298 128.043,220.198 128.043 C 220.099 128.043,220.018 128.136,220.018 128.249 C 220.018 128.498,219.588 128.847,218.801 129.237 C 218.478 129.396,218.215 129.636,218.215 129.770 C 218.215 130.068,217.311 130.929,216.998 130.929 C 216.873 130.929,216.385 131.316,215.914 131.790 C 215.080 132.630,214.364 133.027,212.894 133.465 C 212.498 133.583,212.051 133.775,211.903 133.892 C 210.985 134.614,208.998 134.780,208.275 134.195 C 207.755 133.774,207.633 132.208,207.893 129.306 C 207.989 128.227,207.997 126.908,207.911 126.240 C 207.598 123.815,207.394 121.936,207.218 119.838 C 207.009 117.352,206.801 116.307,206.213 114.788 C 205.590 113.179,205.272 112.047,205.047 110.640 C 204.831 109.292,204.488 108.320,203.867 107.304 C 203.655 106.957,203.381 106.105,203.258 105.410 C 203.135 104.716,202.920 103.753,202.780 103.271 C 202.640 102.788,202.525 102.309,202.525 102.206 C 202.525 102.102,202.339 101.767,202.112 101.460 C 201.568 100.724,201.167 99.705,200.900 98.377 C 200.675 97.257,200.162 95.559,200.001 95.401 C 199.729 95.133,199.308 93.905,199.135 92.876 C 199.027 92.232,198.804 90.893,198.639 89.901 C 198.475 88.909,198.234 87.610,198.103 87.015 C 197.725 85.293,197.620 83.944,197.805 83.198 C 198.199 81.608,198.443 77.767,198.215 76.748 C 197.926 75.458,196.499 74.647,194.455 74.610 C 192.720 74.580,191.915 74.758,190.343 75.520 C 189.872 75.749,188.278 77.935,188.278 78.353 C 188.278 78.419,188.087 78.731,187.854 79.047 C 187.171 79.971,186.835 81.561,186.834 83.871 C 186.831 87.165,186.559 89.001,185.899 90.169 C 185.590 90.716,185.187 91.429,185.004 91.755 C 184.821 92.080,184.671 92.537,184.671 92.770 C 184.671 93.003,184.549 93.294,184.400 93.417 C 184.252 93.541,184.130 93.704,184.130 93.780 C 184.130 93.855,183.821 94.393,183.445 94.975 C 183.068 95.557,182.650 96.357,182.517 96.754 C 182.383 97.151,182.009 97.750,181.684 98.085 C 181.360 98.421,180.954 99.070,180.781 99.528 C 180.404 100.530,180.243 100.776,179.309 101.773 C 178.911 102.197,178.529 102.723,178.460 102.942 C 178.390 103.161,177.974 103.677,177.535 104.089 C 177.095 104.501,176.736 104.987,176.736 105.169 C 176.736 105.351,176.655 105.500,176.555 105.500 C 176.456 105.500,176.375 105.585,176.375 105.689 C 176.375 105.905,175.496 106.763,175.275 106.763 C 175.195 106.763,174.988 107.067,174.815 107.439 C 174.385 108.363,173.776 109.103,171.678 111.253 C 170.691 112.265,169.883 113.138,169.883 113.193 C 169.883 113.353,168.989 114.032,168.218 114.458 C 167.828 114.673,167.364 114.980,167.186 115.141 C 166.830 115.463,165.100 116.141,164.632 116.141 C 164.470 116.141,164.246 116.249,164.136 116.381 C 164.027 116.514,163.611 116.730,163.213 116.861 C 162.815 116.993,162.489 117.196,162.489 117.313 C 162.489 117.538,161.355 118.621,160.774 118.951 C 160.585 119.058,160.265 119.438,160.062 119.795 C 159.859 120.153,159.391 120.796,159.022 121.224 C 158.653 121.652,158.349 122.128,158.346 122.281 C 158.343 122.435,158.271 122.638,158.185 122.732 C 158.099 122.826,157.881 123.634,157.700 124.527 C 157.520 125.419,157.224 126.393,157.044 126.691 C 156.863 126.988,156.381 127.903,155.971 128.722 C 155.562 129.542,154.913 130.536,154.530 130.932 C 154.146 131.327,153.832 131.741,153.832 131.852 C 153.832 131.962,153.443 132.429,152.966 132.888 C 152.490 133.348,151.875 134.025,151.599 134.392 C 151.323 134.759,150.861 135.164,150.571 135.292 C 150.282 135.421,150.045 135.572,150.045 135.629 C 150.045 135.883,148.727 137.241,148.480 137.241 C 148.329 137.241,147.806 137.649,147.317 138.149 C 146.827 138.649,146.247 139.126,146.027 139.210 C 145.807 139.294,145.180 139.727,144.635 140.172 C 143.796 140.855,142.651 141.417,141.163 141.875 C 140.990 141.928,140.848 142.041,140.848 142.125 C 140.848 143.631,134.026 143.503,132.777 141.973 C 132.405 141.517,131.839 140.865,131.519 140.524 C 130.771 139.728,130.654 139.123,130.676 136.159 L 130.693 133.724 131.407 132.191 C 131.799 131.348,132.269 130.171,132.450 129.576 C 132.875 128.181,133.249 127.333,133.613 126.940 C 133.931 126.596,134.372 125.759,134.716 124.847 C 134.837 124.528,135.114 124.059,135.331 123.806 C 135.683 123.396,136.107 122.621,137.040 120.675 C 137.200 120.341,137.434 120.027,137.561 119.977 C 137.804 119.880,138.422 118.635,138.973 117.133 C 139.154 116.637,139.449 116.072,139.627 115.878 C 140.800 114.603,140.601 110.189,139.371 110.189 C 138.573 110.189,137.944 108.468,138.334 107.349 C 138.503 106.864,141.378 105.140,142.017 105.140 C 142.217 105.140,142.819 104.353,142.825 104.082 C 142.829 103.946,143.100 103.459,143.428 103.000 C 145.035 100.748,145.142 97.582,143.703 94.856 C 143.256 94.010,142.833 93.087,142.762 92.805 C 142.691 92.522,142.252 91.899,141.785 91.419 C 141.319 90.939,140.758 90.310,140.537 90.021 C 140.317 89.733,139.871 89.368,139.546 89.212 C 139.220 89.055,138.717 88.639,138.427 88.287 C 138.137 87.935,137.785 87.647,137.645 87.647 C 137.099 87.647,134.630 86.680,134.231 86.310 C 133.179 85.334,123.154 84.745,119.838 85.463 C 119.243 85.592,118.443 85.761,118.062 85.839 C 117.680 85.918,117.153 86.141,116.890 86.335 C 116.358 86.728,115.753 86.943,113.886 87.403 C 112.742 87.684,111.339 88.361,111.079 88.758 C 111.023 88.843,110.499 89.081,109.915 89.286 C 108.623 89.740,107.927 90.091,107.514 90.497 C 107.343 90.665,106.579 91.112,105.817 91.490 C 105.056 91.868,104.246 92.397,104.019 92.666 C 103.793 92.935,103.313 93.294,102.955 93.463 C 102.596 93.633,101.975 94.139,101.574 94.587 C 101.173 95.035,100.783 95.401,100.708 95.401 C 100.633 95.401,100.070 95.868,99.458 96.438 C 98.845 97.009,97.791 97.922,97.116 98.467 C 96.440 99.013,95.738 99.601,95.554 99.775 C 95.371 99.948,95.168 100.090,95.104 100.090 C 94.975 100.090,94.486 100.603,92.606 102.716 C 91.912 103.496,91.005 104.486,90.591 104.917 C 90.177 105.348,89.612 106.000,89.336 106.367 C 89.060 106.733,88.489 107.371,88.069 107.785 C 87.648 108.198,87.185 108.820,87.039 109.168 C 86.894 109.516,86.560 109.942,86.297 110.114 C 86.034 110.286,85.563 110.962,85.250 111.616 C 84.937 112.269,84.504 112.976,84.287 113.185 C 84.071 113.395,83.590 114.190,83.218 114.952 C 82.847 115.715,82.401 116.438,82.229 116.558 C 82.057 116.679,81.701 117.304,81.439 117.947 C 80.853 119.386,80.481 120.087,80.049 120.568 C 79.738 120.914,79.150 122.389,78.826 123.634 C 78.748 123.936,78.552 124.423,78.392 124.716 C 77.616 126.131,77.120 127.306,76.989 128.043 C 76.625 130.079,76.239 131.618,75.927 132.281 C 75.170 133.886,74.695 143.658,75.342 144.305 C 75.464 144.427,75.564 144.673,75.564 144.851 C 75.564 145.030,75.626 145.176,75.703 145.176 C 75.915 145.176,76.411 146.211,76.846 147.565 C 77.061 148.235,77.307 148.783,77.392 148.783 C 77.478 148.783,77.547 148.891,77.547 149.023 C 77.547 149.155,77.750 149.371,77.998 149.504 C 78.246 149.637,78.449 149.812,78.449 149.893 C 78.449 150.320,81.371 152.913,82.180 153.204 C 82.658 153.375,83.514 153.753,84.083 154.044 C 86.476 155.267,92.914 155.408,94.584 154.275 C 95.215 153.847,95.605 153.699,97.690 153.096 C 98.698 152.805,99.085 152.594,99.425 152.148 C 99.665 151.832,100.096 151.456,100.382 151.311 C 101.830 150.578,108.524 144.192,110.030 142.106 C 110.266 141.779,110.805 141.189,111.226 140.796 C 111.648 140.402,111.993 139.982,111.993 139.863 C 111.993 139.637,112.971 138.683,113.202 138.683 C 113.274 138.683,113.707 138.315,114.164 137.865 C 115.298 136.748,115.596 136.956,116.393 139.426 C 116.661 140.260,117.248 141.420,117.657 141.930 C 117.980 142.331,118.305 143.159,118.305 143.578 C 118.305 143.995,118.764 144.688,119.831 145.885 C 121.387 147.629,122.552 148.778,122.768 148.780 C 122.892 148.782,122.994 148.862,122.994 148.960 C 122.994 149.057,123.217 149.188,123.490 149.251 C 123.762 149.315,124.472 149.633,125.068 149.959 C 128.030 151.581,134.883 151.619,138.233 150.033 C 138.828 149.751,139.558 149.469,139.856 149.406 C 141.315 149.098,142.632 148.552,143.107 148.056 C 143.389 147.761,143.677 147.520,143.747 147.520 C 144.031 147.520,146.226 146.130,146.633 145.693 C 146.873 145.435,147.366 145.065,147.727 144.871 C 148.089 144.678,148.765 144.140,149.229 143.675 C 149.694 143.211,150.159 142.831,150.264 142.831 C 150.451 142.831,151.149 142.156,151.433 141.699 C 151.513 141.571,151.996 141.164,152.506 140.795 C 153.017 140.425,153.479 140.005,153.534 139.862 C 153.590 139.718,153.983 139.385,154.410 139.121 C 154.836 138.857,155.482 138.358,155.845 138.011 C 156.650 137.241,156.719 137.279,157.522 138.926 C 157.874 139.649,158.306 140.397,158.482 140.589 C 159.271 141.450,160.144 143.191,160.144 143.903 C 160.144 144.040,160.379 144.362,160.665 144.619 C 161.185 145.085,161.856 146.068,162.061 146.664 C 162.121 146.837,162.242 146.979,162.329 146.979 C 162.417 146.979,162.489 147.051,162.489 147.140 C 162.489 147.360,164.438 149.324,164.657 149.324 C 164.754 149.324,164.833 149.405,164.833 149.504 C 164.833 149.603,164.911 149.684,165.007 149.684 C 165.102 149.684,165.488 150.005,165.865 150.397 C 166.241 150.788,166.919 151.272,167.371 151.472 C 167.822 151.672,168.330 151.988,168.499 152.175 C 168.668 152.361,169.150 152.623,169.570 152.756 C 169.990 152.890,170.494 153.105,170.689 153.235 C 170.885 153.365,171.251 153.472,171.503 153.472 C 171.926 153.472,172.562 153.676,174.482 154.426 C 177.047 155.430,186.576 155.298,189.089 154.225 C 189.585 154.013,190.466 153.719,191.046 153.571 C 191.626 153.423,192.356 153.221,192.669 153.122 C 192.981 153.024,193.459 152.899,193.730 152.844 C 194.001 152.790,194.488 152.515,194.812 152.234 C 195.136 151.953,196.069 151.407,196.886 151.019 C 197.702 150.632,198.372 150.232,198.374 150.130 C 198.378 149.882,198.879 149.467,199.888 148.876 C 200.346 148.607,200.721 148.302,200.721 148.197 C 200.721 148.093,201.156 147.593,201.687 147.087 C 202.218 146.581,202.837 145.802,203.062 145.356 C 203.287 144.910,203.603 144.413,203.764 144.251 C 204.482 143.534,205.230 142.415,205.230 142.060 C 205.230 141.548,206.346 140.679,207.409 140.363 C 207.996 140.189,208.476 139.987,208.476 139.914 C 208.476 139.743,209.396 139.353,210.640 138.997 C 211.186 138.841,211.981 138.611,212.408 138.486 C 212.834 138.361,213.402 138.065,213.670 137.829 C 214.214 137.348,216.095 136.340,216.451 136.338 C 216.578 136.337,217.122 135.932,217.659 135.436 C 218.197 134.941,218.715 134.536,218.811 134.536 C 218.907 134.536,219.360 134.206,219.818 133.803 C 220.881 132.866,221.053 132.734,221.228 132.723 C 221.306 132.718,221.695 132.388,222.092 131.990 C 222.800 131.278,222.832 131.266,223.865 131.351 C 225.226 131.464,225.093 130.925,225.164 136.642 C 225.198 139.401,225.318 142.146,225.429 142.741 C 225.541 143.336,225.740 144.472,225.872 145.266 C 226.003 146.060,226.194 146.952,226.296 147.250 C 226.397 147.547,226.529 148.012,226.588 148.283 C 226.647 148.554,226.958 149.042,227.279 149.367 C 227.600 149.692,228.066 150.203,228.314 150.501 C 229.373 151.778,232.370 152.156,234.851 151.325 C 235.521 151.101,236.069 150.843,236.069 150.752 C 236.069 150.661,236.174 150.586,236.302 150.586 C 236.561 150.586,237.872 149.311,237.872 149.060 C 237.872 148.973,237.980 148.773,238.113 148.617 C 238.245 148.460,238.462 148.058,238.595 147.722 C 238.728 147.387,239.048 146.882,239.306 146.599 C 239.563 146.317,239.881 145.699,240.012 145.225 C 240.553 143.269,241.161 141.562,241.362 141.435 C 241.735 141.198,242.548 139.034,242.565 138.233 C 242.569 138.034,242.761 137.507,242.991 137.060 C 244.068 134.974,244.364 134.340,244.364 134.120 C 244.364 133.710,245.259 131.568,245.509 131.380 C 245.768 131.184,246.709 128.955,246.709 128.536 C 246.709 128.150,247.200 127.243,247.609 126.872 C 247.808 126.692,247.974 126.415,247.977 126.257 C 247.980 126.099,248.102 125.812,248.247 125.619 C 248.393 125.427,248.512 125.129,248.512 124.958 C 248.512 124.549,249.362 122.865,249.779 122.449 C 250.109 122.118,250.852 120.592,250.863 120.221 C 250.866 120.109,251.108 119.693,251.400 119.297 C 251.692 118.900,252.009 118.401,252.104 118.187 C 252.199 117.974,252.363 117.746,252.469 117.680 C 252.574 117.615,252.660 117.380,252.660 117.158 C 252.660 116.693,253.549 115.239,253.833 115.239 C 253.938 115.239,254.138 114.853,254.276 114.382 C 254.555 113.435,255.362 111.993,255.613 111.993 C 255.886 111.993,256.474 111.220,256.837 110.381 C 257.028 109.941,257.426 109.333,257.721 109.029 C 258.016 108.725,258.553 108.030,258.914 107.484 C 259.601 106.446,260.284 105.702,262.819 103.230 C 263.133 102.923,263.564 102.477,263.777 102.238 C 264.227 101.732,264.681 101.353,264.838 101.353 C 264.898 101.353,265.246 101.069,265.612 100.723 C 265.977 100.377,266.331 100.093,266.398 100.092 C 266.466 100.091,266.628 99.989,266.759 99.865 C 266.890 99.741,267.322 99.532,267.719 99.401 C 268.667 99.088,269.612 98.601,269.612 98.426 C 269.612 98.349,269.727 98.287,269.868 98.287 C 270.008 98.287,270.150 98.205,270.184 98.106 C 270.298 97.762,274.134 97.022,275.765 97.028 C 276.861 97.033,279.603 97.435,280.186 97.677 C 281.073 98.044,283.444 100.458,283.675 101.228 C 283.799 101.644,283.973 102.219,284.061 102.507 C 284.542 104.086,283.822 108.747,283.097 108.747 C 283.020 108.747,282.958 108.868,282.958 109.017 C 282.958 109.166,282.896 109.288,282.820 109.288 C 282.744 109.288,282.602 109.442,282.504 109.631 C 282.407 109.820,282.173 110.270,281.987 110.631 C 281.800 110.992,281.272 111.583,280.814 111.946 C 280.357 112.308,279.710 112.872,279.377 113.198 C 279.045 113.525,278.258 114.045,277.629 114.355 C 277.000 114.665,276.343 115.075,276.169 115.267 C 275.995 115.459,275.565 115.741,275.212 115.894 C 274.860 116.046,274.305 116.286,273.979 116.426 C 273.654 116.567,273.271 116.682,273.129 116.682 C 272.862 116.682,271.214 117.542,271.055 117.764 C 271.005 117.834,270.762 117.938,270.514 117.997 C 270.266 118.055,269.739 118.186,269.342 118.287 C 268.945 118.388,268.133 118.567,267.538 118.686 C 266.943 118.804,266.090 119.120,265.641 119.387 C 265.193 119.654,264.382 119.981,263.838 120.112 C 262.695 120.389,261.750 120.898,261.495 121.375 C 260.925 122.439,261.485 129.665,262.255 131.179 C 262.635 131.925,262.955 133.018,263.479 135.347 C 263.870 137.086,264.184 137.933,264.616 138.411 C 265.035 138.874,265.464 139.739,265.464 140.119 C 265.464 140.284,265.584 140.576,265.729 140.768 C 265.875 140.961,265.997 141.246,266.000 141.401 C 266.003 141.557,266.256 141.963,266.563 142.303 C 266.869 142.643,267.307 143.287,267.536 143.734 C 267.922 144.491,268.798 145.534,269.051 145.539 C 269.112 145.540,269.316 145.864,269.506 146.260 C 269.696 146.656,269.919 146.979,270.002 146.979 C 270.085 146.979,270.153 147.062,270.153 147.164 C 270.153 147.446,273.018 150.188,273.861 150.714 C 274.054 150.833,274.624 151.127,275.129 151.367 C 275.634 151.606,276.203 151.957,276.392 152.147 C 277.572 153.328,286.526 153.782,287.728 152.721 C 287.822 152.638,288.045 152.570,288.224 152.570 C 288.402 152.570,288.548 152.491,288.548 152.395 C 288.548 152.204,290.222 151.391,291.023 151.193 C 291.679 151.031,292.867 150.281,292.995 149.947 C 293.050 149.803,293.169 149.684,293.260 149.684 C 293.351 149.684,293.746 149.482,294.139 149.234 C 294.532 148.986,294.976 148.783,295.127 148.783 C 295.278 148.783,295.401 148.702,295.401 148.602 C 295.401 148.503,295.523 148.422,295.672 148.422 C 295.821 148.422,295.942 148.331,295.942 148.220 C 295.942 147.974,297.037 146.986,297.315 146.982 C 297.425 146.981,297.668 146.759,297.856 146.490 C 298.187 146.015,298.765 145.412,299.837 144.422 C 300.125 144.156,300.523 143.724,300.721 143.463 C 300.920 143.201,301.248 142.920,301.450 142.838 C 301.652 142.756,302.014 142.306,302.255 141.838 C 302.496 141.370,302.974 140.773,303.317 140.512 C 303.661 140.250,304.269 139.732,304.668 139.360 C 305.753 138.350,306.175 138.534,307.040 140.397 C 307.224 140.794,307.670 141.524,308.031 142.020 C 308.391 142.516,308.833 143.307,309.011 143.778 C 309.190 144.249,309.407 144.635,309.492 144.635 C 309.578 144.635,309.648 144.710,309.648 144.801 C 309.648 144.893,309.872 145.208,310.144 145.503 C 310.869 146.284,311.034 146.514,311.166 146.930 C 311.325 147.431,312.314 148.783,312.521 148.783 C 312.725 148.783,313.717 149.760,313.841 150.082 C 313.890 150.211,314.635 150.673,315.495 151.110 C 316.356 151.546,317.157 152.033,317.277 152.191 C 317.621 152.650,319.665 153.472,320.462 153.472 C 320.990 153.472,321.889 153.749,323.084 154.283 C 325.548 155.381,334.261 155.419,337.241 154.344 C 338.488 153.894,339.276 153.669,340.307 153.468 C 341.475 153.240,343.279 152.539,343.777 152.119 C 344.013 151.921,344.809 151.445,345.547 151.061 C 346.285 150.678,347.062 150.191,347.273 149.979 C 347.914 149.336,348.357 149.011,349.019 148.697 C 349.409 148.511,349.695 148.224,349.765 147.946 C 349.871 147.523,350.848 146.394,351.243 146.238 C 351.341 146.200,351.678 145.640,351.990 144.995 C 352.302 144.351,352.800 143.560,353.095 143.237 C 353.390 142.915,353.778 142.389,353.957 142.068 C 354.583 140.947,355.757 140.126,356.734 140.126 C 356.877 140.126,357.277 139.936,357.623 139.704 C 358.391 139.187,359.520 138.781,360.969 138.500 C 361.824 138.334,362.218 138.140,362.772 137.615 C 363.163 137.244,364.055 136.708,364.764 136.418 C 365.666 136.049,366.134 135.743,366.338 135.388 C 366.497 135.110,366.937 134.744,367.314 134.574 C 367.692 134.404,368.372 133.900,368.825 133.454 C 369.279 133.007,369.905 132.453,370.217 132.223 C 370.529 131.992,370.784 131.706,370.784 131.586 C 370.784 131.313,371.784 130.207,372.031 130.207 C 372.133 130.207,372.437 129.757,372.707 129.206 C 372.981 128.644,373.417 128.074,373.696 127.909 C 373.971 127.747,374.274 127.406,374.369 127.152 C 374.464 126.898,374.682 126.305,374.852 125.834 C 375.022 125.363,375.232 124.977,375.318 124.977 C 375.403 124.977,375.473 124.894,375.473 124.791 C 375.473 124.689,375.712 124.372,376.003 124.087 C 376.322 123.775,376.580 123.293,376.651 122.876 C 376.924 121.285,377.354 120.248,377.923 119.814 C 378.549 119.337,378.875 117.654,378.521 116.725 L 378.352 116.281 378.028 116.707 C 377.849 116.941,377.593 117.406,377.459 117.741 C 377.301 118.135,377.010 118.435,376.633 118.592 C 376.155 118.792,375.996 119.011,375.740 119.824 C 375.524 120.513,375.204 121.023,374.685 121.511 C 374.276 121.895,373.699 122.672,373.404 123.237 C 373.109 123.803,372.605 124.445,372.284 124.665 C 371.963 124.885,371.597 125.268,371.472 125.517 C 371.191 126.073,370.676 126.603,370.008 127.024 C 369.730 127.199,369.453 127.480,369.392 127.648 C 369.269 127.987,368.074 129.125,367.841 129.125 C 367.631 129.125,367.178 129.605,367.178 129.827 C 367.178 130.079,366.244 130.929,365.967 130.929 C 365.845 130.929,365.379 131.295,364.932 131.742 C 364.180 132.493,362.692 133.273,362.010 133.273 C 361.854 133.273,361.339 133.557,360.866 133.904 C 360.063 134.493,359.915 134.536,358.653 134.536 C 356.608 134.536,356.707 134.860,356.513 127.520 C 356.425 124.187,356.285 121.055,356.201 120.559 C 356.117 120.063,355.938 118.988,355.802 118.170 C 355.667 117.351,355.504 116.682,355.440 116.682 C 355.228 116.682,354.775 115.171,354.467 113.436 C 354.018 110.903,353.875 110.421,353.110 108.837 C 352.634 107.851,352.347 106.937,352.203 105.951 C 352.088 105.158,351.879 104.242,351.741 103.916 C 351.602 103.591,351.488 103.232,351.488 103.119 C 351.488 103.006,351.376 102.786,351.239 102.629 C 350.958 102.306,350.205 100.133,349.861 98.647 C 349.734 98.102,349.318 97.034,348.936 96.275 C 348.554 95.515,348.242 94.713,348.242 94.492 C 348.242 93.265,347.514 90.038,346.950 88.763 C 346.288 87.265,346.187 80.254,346.803 78.582 C 347.026 77.979,347.019 77.844,346.746 77.381 C 346.577 77.095,346.438 76.743,346.438 76.600 C 346.438 75.731,345.435 74.926,344.076 74.703 C 342.704 74.479,340.667 74.637,339.943 75.024 C 339.759 75.122,339.457 75.203,339.270 75.203 C 338.912 75.203,338.277 75.938,338.069 76.593 C 338.001 76.808,337.670 77.225,337.335 77.519 C 336.300 78.429,335.987 79.826,335.619 85.187 C 335.451 87.630,335.358 88.176,334.979 88.923 C 334.735 89.405,334.536 89.891,334.536 90.003 C 334.536 90.115,334.423 90.463,334.286 90.775 C 334.149 91.088,333.932 91.628,333.803 91.975 C 333.674 92.322,333.259 93.045,332.880 93.582 C 332.501 94.119,332.191 94.657,332.191 94.777 C 332.191 95.237,331.243 97.112,330.675 97.776 C 330.348 98.157,329.932 98.828,329.752 99.266 C 329.571 99.704,329.252 100.155,329.042 100.267 C 328.833 100.379,328.583 100.619,328.488 100.800 C 328.392 100.982,328.093 101.566,327.823 102.098 C 327.553 102.630,327.011 103.365,326.619 103.732 C 326.227 104.098,325.774 104.676,325.612 105.017 C 325.450 105.358,324.998 105.894,324.607 106.208 C 324.215 106.523,323.895 106.879,323.895 107.001 C 323.895 107.328,322.857 108.528,322.466 108.652 C 322.280 108.711,322.080 108.951,322.021 109.184 C 321.963 109.418,321.529 110.016,321.057 110.514 C 320.585 111.012,319.789 111.853,319.289 112.382 C 318.171 113.568,317.275 114.323,316.682 114.582 C 316.434 114.690,315.866 114.991,315.419 115.252 C 314.973 115.512,314.011 115.961,313.282 116.249 C 312.553 116.536,311.782 116.964,311.569 117.199 C 310.950 117.880,310.244 118.543,309.654 118.995 C 309.354 119.225,309.107 119.499,309.107 119.603 C 309.107 119.706,308.756 120.127,308.327 120.539 C 307.648 121.189,307.470 121.533,306.961 123.177 C 306.639 124.217,306.213 125.514,306.014 126.060 C 305.815 126.605,305.534 127.660,305.388 128.404 C 304.865 131.082,304.613 131.716,303.677 132.718 C 303.192 133.237,302.795 133.803,302.795 133.974 C 302.795 134.284,301.799 135.437,301.532 135.437 C 301.456 135.437,301.250 135.742,301.074 136.114 C 300.796 136.701,299.815 137.771,299.547 137.779 C 299.496 137.780,299.261 138.095,299.024 138.477 C 298.788 138.859,298.282 139.365,297.900 139.601 C 297.517 139.838,297.205 140.099,297.205 140.183 C 297.205 140.436,296.225 141.332,295.800 141.467 C 295.581 141.536,295.401 141.669,295.401 141.761 C 295.401 141.854,295.280 141.930,295.131 141.930 C 294.982 141.930,294.860 142.017,294.860 142.123 C 294.860 142.413,294.097 143.035,293.417 143.300 C 292.719 143.572,292.200 143.849,291.692 144.222 C 290.051 145.425,285.082 145.728,283.076 144.747 C 282.515 144.472,282.056 144.180,282.056 144.098 C 282.056 144.015,281.618 143.701,281.083 143.399 C 280.547 143.097,279.929 142.596,279.709 142.287 C 279.488 141.977,278.912 141.328,278.428 140.843 C 277.943 140.359,277.547 139.875,277.547 139.767 C 277.547 139.573,276.943 138.647,276.515 138.184 C 276.234 137.881,275.564 136.372,275.564 136.043 C 275.564 135.906,275.494 135.652,275.410 135.480 C 275.325 135.308,275.103 134.842,274.916 134.445 C 274.728 134.049,274.522 133.683,274.458 133.634 C 274.043 133.315,273.505 131.800,273.378 130.593 C 273.298 129.836,273.069 128.607,272.868 127.863 C 272.165 125.253,272.686 124.249,275.023 123.715 C 275.568 123.590,276.501 123.300,277.096 123.071 C 278.137 122.669,279.383 122.355,281.865 121.869 C 282.721 121.701,283.229 121.474,283.795 121.007 C 284.217 120.658,284.952 120.261,285.428 120.124 C 286.639 119.776,287.079 119.528,287.992 118.682 C 288.430 118.276,288.881 117.944,288.993 117.944 C 289.106 117.944,289.650 117.518,290.203 116.997 C 290.755 116.477,291.441 115.846,291.726 115.596 C 292.012 115.345,292.430 114.940,292.657 114.694 C 292.883 114.448,293.248 114.072,293.468 113.858 C 293.688 113.644,294.030 113.157,294.228 112.776 C 294.425 112.395,294.892 111.809,295.265 111.475 C 295.637 111.141,295.942 110.749,295.942 110.604 C 295.942 110.122,297.160 107.132,297.441 106.926 C 298.150 106.405,298.010 99.607,297.263 98.287 C 297.067 97.940,296.858 97.493,296.800 97.295 C 296.742 97.096,296.525 96.489,296.318 95.945 C 296.111 95.401,295.942 94.816,295.942 94.646 C 295.942 94.476,295.622 94.079,295.231 93.765 C 294.840 93.450,294.386 92.911,294.222 92.566 C 293.883 91.852,291.506 89.450,291.138 89.450 C 291.004 89.450,290.509 89.064,290.037 88.593 C 289.196 87.754,288.799 87.561,286.750 86.999 C 286.207 86.850,285.639 86.624,285.488 86.496 C 283.722 85.006,276.518 85.043,274.121 86.554 C 273.972 86.648,273.120 86.946,272.227 87.217 C 271.128 87.551,270.342 87.921,269.793 88.361 C 269.346 88.719,268.413 89.284,267.719 89.616 C 267.024 89.949,266.268 90.453,266.037 90.737 C 265.807 91.021,265.266 91.460,264.835 91.712 C 264.405 91.965,263.922 92.371,263.762 92.615 C 263.602 92.859,263.146 93.263,262.749 93.514 C 262.351 93.765,261.805 94.284,261.536 94.667 C 261.266 95.049,260.706 95.594,260.290 95.878 C 259.874 96.161,259.486 96.581,259.427 96.811 C 259.316 97.244,258.362 98.287,258.076 98.287 C 257.987 98.287,257.859 98.461,257.791 98.674 C 257.603 99.268,256.745 100.436,256.492 100.444 C 256.368 100.448,256.267 100.535,256.267 100.639 C 256.267 100.742,256.098 101.006,255.891 101.225 C 255.684 101.444,255.355 101.931,255.161 102.307 C 254.967 102.684,254.530 103.300,254.190 103.676 C 253.850 104.053,253.324 104.860,253.021 105.471 C 252.718 106.083,252.404 106.583,252.323 106.583 C 252.242 106.583,252.023 106.867,251.836 107.214 C 251.649 107.561,251.446 107.845,251.386 107.845 C 251.325 107.845,251.171 108.160,251.044 108.545 C 250.917 108.930,250.498 109.600,250.114 110.033 C 249.729 110.466,249.414 110.885,249.414 110.963 C 249.413 111.351,248.279 113.466,247.967 113.660 C 247.771 113.783,247.610 113.985,247.610 114.110 C 247.610 114.235,247.536 114.337,247.445 114.337 C 247.353 114.337,247.141 114.763,246.972 115.284 C 246.633 116.326,246.078 117.345,245.619 117.764 C 245.456 117.913,245.055 118.747,244.727 119.619 C 244.301 120.752,243.920 121.422,243.391 121.969 C 242.701 122.682,242.478 123.048,241.798 124.578 C 241.204 125.914,240.725 123.963,240.742 120.278 C 240.756 117.370,240.897 116.433,241.650 114.264 C 241.853 113.678,242.020 113.036,242.020 112.837 C 242.020 112.429,242.481 109.666,242.778 108.296 C 242.886 107.800,243.158 106.988,243.383 106.492 C 243.930 105.286,244.252 104.143,244.648 102.000 C 244.836 100.984,245.138 99.973,245.349 99.656 C 245.873 98.869,246.168 98.157,246.168 97.679 C 246.168 97.454,246.292 96.869,246.445 96.380 C 246.597 95.891,246.808 95.207,246.914 94.860 C 247.019 94.513,247.292 93.939,247.520 93.585 C 247.947 92.921,248.271 92.014,248.804 89.991 C 248.975 89.346,249.289 88.575,249.504 88.278 C 249.719 87.980,250.200 87.188,250.573 86.517 C 250.946 85.846,251.422 85.205,251.630 85.094 C 251.838 84.982,252.297 84.625,252.650 84.300 C 253.626 83.399,254.110 83.055,255.095 82.560 C 255.591 82.311,256.306 81.811,256.686 81.450 C 257.065 81.089,257.511 80.791,257.677 80.788 C 257.954 80.783,259.152 79.839,259.152 79.626 C 259.152 79.424,259.789 78.810,259.997 78.810 C 260.121 78.810,260.731 78.341,261.355 77.769 C 261.979 77.196,262.857 76.434,263.306 76.075 C 264.109 75.435,265.902 73.703,267.025 72.484 C 267.337 72.144,267.833 71.664,268.127 71.416 C 268.420 71.168,268.895 70.600,269.181 70.155 C 269.664 69.404,270.331 68.669,270.791 68.380 C 270.896 68.314,271.177 67.976,271.414 67.628 C 271.651 67.281,272.162 66.664,272.549 66.257 C 272.937 65.849,273.399 65.191,273.578 64.793 C 273.756 64.395,274.061 63.957,274.256 63.820 C 274.451 63.683,274.883 63.124,275.215 62.579 C 275.548 62.033,275.884 61.560,275.962 61.527 C 276.041 61.494,276.105 61.388,276.105 61.292 C 276.105 61.195,276.348 60.857,276.645 60.540 C 276.943 60.223,277.356 59.599,277.563 59.152 C 277.770 58.706,278.257 58.037,278.645 57.665 C 279.033 57.293,279.351 56.866,279.351 56.716 C 279.351 56.565,279.426 56.301,279.518 56.129 C 279.610 55.957,279.733 55.694,279.790 55.546 C 279.919 55.214,280.336 54.588,281.109 53.563 C 281.431 53.136,281.695 52.662,281.695 52.511 C 281.695 51.943,282.148 50.918,282.786 50.044 C 283.165 49.523,283.560 48.683,283.719 48.060 C 283.981 47.028,284.535 45.846,285.027 45.266 C 285.154 45.117,285.357 44.549,285.480 44.004 C 285.603 43.458,285.816 42.631,285.954 42.166 C 286.091 41.701,286.204 41.212,286.204 41.079 C 286.204 40.946,286.495 40.149,286.852 39.309 C 287.742 37.210,287.994 35.255,288.003 30.388 C 288.012 24.987,287.817 23.797,286.609 21.905 C 286.485 21.710,286.307 21.376,286.214 21.163 C 286.122 20.949,285.960 20.721,285.854 20.656 C 285.749 20.591,285.660 20.360,285.657 20.143 C 285.649 19.564,285.030 18.929,284.197 18.645 C 284.036 18.590,283.804 18.358,283.681 18.129 C 283.320 17.455,281.621 17.014,280.343 17.263 M279.284 35.808 C 279.659 36.381,279.530 40.186,279.113 40.826 C 278.976 41.036,278.763 41.655,278.641 42.200 C 277.747 46.174,277.694 46.333,276.882 47.411 C 276.553 47.847,276.206 48.497,276.109 48.857 C 276.012 49.216,275.667 49.906,275.343 50.390 C 274.542 51.583,273.970 52.514,273.838 52.840 C 273.439 53.819,273.080 54.358,271.590 56.214 C 271.494 56.334,271.416 56.517,271.416 56.620 C 271.416 56.723,271.335 56.808,271.235 56.808 C 271.136 56.808,271.055 56.930,271.055 57.078 C 271.055 57.227,270.989 57.349,270.909 57.349 C 270.718 57.349,269.751 58.728,269.422 59.470 C 269.280 59.791,269.117 60.054,269.060 60.054 C 268.887 60.054,267.878 61.027,267.750 61.317 C 267.447 62.003,266.845 62.759,266.601 62.759 C 266.518 62.759,266.194 63.188,265.881 63.711 C 265.377 64.553,264.170 66.005,263.973 66.005 C 263.855 66.005,262.040 67.645,261.013 68.678 C 259.724 69.977,259.267 69.940,259.184 68.530 C 259.111 67.269,259.470 65.507,259.920 64.923 C 260.332 64.389,260.686 63.586,261.130 62.178 C 261.309 61.610,261.731 60.758,262.067 60.284 C 262.402 59.811,262.828 59.058,263.013 58.611 C 263.580 57.242,263.840 56.746,264.382 55.996 C 264.669 55.600,265.031 54.893,265.185 54.425 C 265.431 53.686,266.398 52.019,266.734 51.758 C 266.798 51.709,266.996 51.283,267.174 50.812 C 267.352 50.340,267.567 49.955,267.653 49.955 C 267.739 49.955,267.809 49.865,267.809 49.755 C 267.809 49.646,268.012 49.396,268.260 49.201 C 268.508 49.006,268.711 48.695,268.711 48.510 C 268.711 48.324,268.780 48.130,268.864 48.078 C 268.949 48.026,269.165 47.597,269.346 47.125 C 269.526 46.653,269.964 45.952,270.319 45.569 C 270.674 45.185,271.080 44.574,271.220 44.212 C 271.431 43.669,272.282 42.387,272.675 42.020 C 272.875 41.833,273.760 40.399,273.760 40.262 C 273.760 40.183,273.943 39.945,274.166 39.732 C 275.200 38.748,275.694 38.235,276.193 37.627 C 276.490 37.266,276.801 36.970,276.885 36.970 C 276.970 36.970,277.393 36.605,277.827 36.159 C 278.742 35.218,278.876 35.186,279.284 35.808 M130.151 91.669 C 131.491 92.515,132.657 93.725,132.916 94.538 C 133.051 94.963,133.269 95.473,133.400 95.670 C 134.297 97.020,134.989 102.884,134.443 104.509 C 133.900 106.124,132.940 107.525,132.022 108.040 C 131.618 108.268,131.128 108.796,130.775 109.387 C 130.455 109.921,130.046 110.463,129.865 110.590 C 129.685 110.717,129.265 111.267,128.933 111.812 C 128.600 112.358,128.264 112.831,128.186 112.864 C 128.107 112.898,128.043 112.985,128.043 113.060 C 128.043 113.134,127.720 113.545,127.325 113.973 C 126.931 114.400,126.505 114.982,126.380 115.265 C 126.254 115.548,126.102 115.780,126.040 115.780 C 125.772 115.780,124.895 116.837,124.581 117.540 C 124.393 117.962,123.996 118.487,123.699 118.706 C 123.403 118.925,122.981 119.472,122.761 119.922 C 122.287 120.894,122.337 120.822,121.195 122.165 C 120.696 122.751,120.289 123.327,120.289 123.445 C 120.289 123.680,118.675 125.338,118.446 125.338 C 118.368 125.338,118.305 125.469,118.305 125.629 C 118.305 125.788,117.943 126.275,117.502 126.711 C 117.060 127.146,116.539 127.847,116.345 128.269 C 116.151 128.690,115.680 129.373,115.300 129.786 C 114.330 130.838,113.796 131.483,113.796 131.603 C 113.796 131.795,112.168 133.525,108.206 137.541 C 107.958 137.793,107.564 138.173,107.330 138.386 C 107.096 138.599,106.488 139.170,105.977 139.654 C 105.467 140.139,104.603 140.865,104.058 141.268 C 103.512 141.672,102.782 142.290,102.435 142.642 C 102.087 142.994,101.479 143.396,101.082 143.534 C 100.685 143.673,100.015 144.090,99.592 144.460 C 99.170 144.831,98.642 145.176,98.420 145.227 C 98.198 145.277,97.408 145.488,96.664 145.694 C 94.983 146.160,92.321 146.224,91.975 145.807 C 91.851 145.658,91.676 145.537,91.584 145.537 C 91.407 145.537,91.349 145.495,90.306 144.622 C 88.562 143.162,88.406 135.131,90.060 131.921 C 90.397 131.267,90.881 129.764,90.887 129.353 C 90.903 128.267,91.591 126.309,92.196 125.629 C 92.367 125.437,92.635 124.826,92.792 124.272 C 93.172 122.927,93.657 121.733,93.823 121.732 C 93.898 121.732,93.959 121.610,93.959 121.461 C 93.959 121.312,94.036 121.190,94.130 121.190 C 94.225 121.190,94.437 120.886,94.603 120.514 C 95.312 118.917,95.401 118.690,95.401 118.484 C 95.401 118.301,96.335 116.972,96.667 116.682 C 96.724 116.632,97.006 116.105,97.294 115.509 C 97.581 114.914,98.084 114.151,98.412 113.814 C 98.740 113.476,99.008 113.103,99.008 112.984 C 99.008 112.616,99.913 111.029,100.447 110.460 C 100.726 110.162,101.208 109.501,101.519 108.990 C 101.829 108.479,102.283 107.930,102.528 107.769 C 102.773 107.609,103.174 107.081,103.420 106.595 C 103.666 106.110,104.111 105.539,104.409 105.326 C 104.708 105.114,105.080 104.670,105.236 104.340 C 105.393 104.010,105.861 103.376,106.277 102.931 C 106.693 102.486,107.277 101.815,107.574 101.439 C 108.203 100.644,109.178 99.666,110.036 98.968 C 110.369 98.698,111.040 98.110,111.528 97.661 C 112.016 97.211,112.501 96.844,112.606 96.844 C 112.710 96.844,113.041 96.570,113.341 96.235 C 113.641 95.901,114.252 95.460,114.698 95.257 C 115.144 95.053,115.848 94.559,116.262 94.159 C 116.675 93.759,117.243 93.380,117.524 93.318 C 118.360 93.131,120.459 92.318,120.570 92.137 C 121.241 91.052,128.603 90.692,130.151 91.669 M188.427 99.188 C 188.657 99.793,188.815 100.371,189.155 101.849 C 189.290 102.437,189.504 102.930,190.296 104.481 C 190.470 104.820,190.701 105.994,190.978 107.935 C 191.185 109.391,191.667 111.377,192.003 112.162 C 192.471 113.259,192.738 114.541,192.863 116.304 C 192.978 117.924,193.311 120.429,193.669 122.362 C 194.495 126.832,194.397 132.243,193.469 133.454 C 192.735 134.410,189.881 134.743,189.270 133.943 C 189.073 133.687,188.586 133.493,186.925 133.009 C 185.672 132.645,184.934 132.279,184.336 131.727 C 184.103 131.511,183.575 131.226,183.164 131.093 C 182.753 130.961,182.092 130.547,181.696 130.175 C 181.299 129.803,180.460 129.232,179.831 128.906 C 179.202 128.580,178.458 128.030,178.177 127.683 C 177.897 127.335,177.173 126.534,176.570 125.902 C 175.967 125.270,175.473 124.682,175.473 124.595 C 175.473 124.508,175.385 124.436,175.277 124.436 C 175.002 124.436,174.465 123.770,173.970 122.813 C 173.435 121.780,173.090 121.171,172.846 120.830 C 172.210 119.939,172.264 118.418,172.949 117.944 C 173.020 117.894,173.298 117.405,173.565 116.856 C 173.832 116.307,174.314 115.577,174.636 115.233 C 174.958 114.889,175.582 114.020,176.024 113.302 C 176.465 112.584,176.893 111.995,176.974 111.994 C 177.188 111.992,177.638 111.511,177.638 111.284 C 177.638 111.178,177.708 111.091,177.793 111.091 C 177.879 111.091,178.086 110.732,178.254 110.294 C 178.421 109.856,178.741 109.377,178.966 109.230 C 179.190 109.083,179.630 108.442,179.944 107.805 C 180.257 107.168,180.782 106.369,181.110 106.029 C 181.686 105.432,182.326 104.307,182.326 103.893 C 182.326 103.580,182.718 102.987,183.425 102.229 C 183.781 101.848,184.227 101.230,184.416 100.858 C 184.778 100.148,185.477 99.369,185.753 99.369 C 185.842 99.369,186.299 99.006,186.768 98.563 L 187.621 97.757 187.904 98.157 C 188.060 98.377,188.295 98.841,188.427 99.188 M337.335 99.639 C 337.538 100.036,337.806 100.807,337.930 101.353 C 338.398 103.406,338.730 104.538,339.146 105.500 C 339.694 106.771,339.861 107.468,340.224 110.009 C 340.596 112.612,340.923 114.200,341.302 115.237 C 341.464 115.682,341.676 116.778,341.773 117.671 C 341.870 118.565,342.025 119.581,342.119 119.928 C 342.212 120.275,342.291 121.005,342.295 121.551 C 342.299 122.096,342.418 123.395,342.561 124.436 C 342.901 126.923,342.911 130.850,342.581 131.869 C 342.443 132.294,342.283 132.845,342.225 133.093 C 341.874 134.595,339.756 135.039,338.323 133.911 C 338.174 133.794,337.728 133.608,337.331 133.497 C 334.790 132.790,333.955 132.463,333.328 131.927 C 332.951 131.605,332.439 131.281,332.191 131.208 C 331.527 131.012,329.848 129.981,329.840 129.764 C 329.833 129.564,328.506 128.584,328.242 128.584 C 328.156 128.584,327.731 128.180,327.298 127.687 C 326.865 127.193,326.386 126.787,326.235 126.785 C 325.927 126.780,325.556 126.394,325.072 125.575 C 324.894 125.273,324.523 124.894,324.249 124.731 C 323.974 124.569,323.525 124.054,323.252 123.588 C 322.979 123.121,322.505 122.465,322.200 122.130 C 320.905 120.707,320.859 117.932,322.111 116.845 C 322.299 116.682,322.453 116.457,322.453 116.345 C 322.453 116.233,322.515 116.141,322.592 116.141 C 322.669 116.141,322.892 115.836,323.088 115.464 C 323.284 115.092,323.870 114.350,324.391 113.814 C 324.912 113.278,325.338 112.739,325.338 112.616 C 325.338 112.494,325.703 112.023,326.150 111.571 C 326.596 111.118,326.961 110.641,326.961 110.511 C 326.961 110.076,327.719 108.854,328.607 107.857 C 329.090 107.315,329.486 106.738,329.486 106.575 C 329.486 106.412,329.852 105.892,330.299 105.418 C 330.747 104.945,331.166 104.343,331.231 104.082 C 331.420 103.323,332.141 102.075,332.597 101.716 C 332.828 101.534,333.250 100.952,333.534 100.422 C 334.347 98.908,334.455 98.834,335.796 98.879 L 336.966 98.918 337.335 99.639 M169.793 126.826 C 170.137 127.049,170.420 127.316,170.422 127.418 C 170.423 127.521,170.688 127.760,171.010 127.949 C 171.711 128.361,172.033 128.662,172.446 129.288 C 172.615 129.546,173.138 129.959,173.607 130.207 C 174.129 130.483,174.569 130.879,174.741 131.229 C 174.933 131.617,175.239 131.871,175.701 132.025 C 176.075 132.149,176.470 132.359,176.580 132.491 C 176.690 132.624,176.881 132.732,177.005 132.732 C 177.129 132.732,177.545 133.057,177.930 133.454 C 178.315 133.851,178.962 134.333,179.368 134.524 C 179.774 134.715,180.403 135.160,180.765 135.512 C 181.127 135.864,181.647 136.199,181.920 136.257 C 182.193 136.315,182.632 136.479,182.895 136.621 C 183.159 136.764,183.494 136.880,183.641 136.880 C 183.789 136.880,184.332 137.171,184.850 137.527 C 185.638 138.069,187.413 138.751,189.117 139.165 C 190.888 139.596,191.295 141.885,189.857 143.326 C 189.386 143.798,188.818 144.387,188.593 144.635 C 188.368 144.883,187.982 145.190,187.735 145.318 C 187.488 145.446,186.931 145.859,186.497 146.237 C 184.670 147.828,175.882 148.089,174.789 146.585 C 174.660 146.408,174.173 146.047,173.707 145.783 C 172.266 144.968,171.689 144.553,171.687 144.332 C 171.687 144.216,171.463 143.953,171.190 143.750 C 170.546 143.269,169.883 142.604,169.883 142.437 C 169.883 142.264,169.180 141.246,168.625 140.616 C 168.382 140.339,168.075 139.731,167.943 139.263 C 167.709 138.436,167.600 138.020,167.180 136.346 C 167.069 135.904,166.918 135.457,166.845 135.354 C 165.906 134.034,166.053 128.043,167.025 128.043 C 167.109 128.043,167.178 127.926,167.178 127.783 C 167.178 127.504,168.559 126.442,168.939 126.428 C 169.064 126.424,169.448 126.603,169.793 126.826 M318.788 126.826 C 319.116 127.049,319.385 127.298,319.386 127.380 C 319.387 127.553,319.851 128.043,320.013 128.043 C 320.260 128.043,321.112 128.855,321.784 129.731 C 322.061 130.092,322.403 130.388,322.544 130.388 C 322.830 130.388,323.895 131.363,323.895 131.624 C 323.895 131.716,324.268 131.966,324.724 132.180 C 325.180 132.395,325.931 132.921,326.393 133.349 C 326.854 133.777,327.716 134.362,328.309 134.647 C 328.901 134.933,329.659 135.431,329.992 135.753 C 330.326 136.075,330.692 136.339,330.805 136.339 C 331.315 136.339,333.562 137.341,334.008 137.767 C 334.279 138.027,334.894 138.339,335.375 138.462 C 339.084 139.410,339.329 139.564,339.502 141.047 C 339.611 141.975,339.582 142.097,339.152 142.527 C 338.894 142.785,338.683 143.040,338.683 143.094 C 338.683 143.412,336.786 145.305,336.322 145.449 C 336.084 145.524,335.848 145.638,335.798 145.702 C 334.802 146.993,332.431 147.567,328.436 147.483 C 324.865 147.408,324.562 147.345,323.354 146.423 C 323.007 146.158,322.384 145.748,321.969 145.513 C 320.754 144.825,319.266 143.415,318.874 142.580 C 318.673 142.154,318.228 141.515,317.883 141.160 C 317.538 140.805,317.202 140.326,317.136 140.095 C 316.921 139.343,316.061 137.332,315.930 137.274 C 315.075 136.898,314.784 129.594,315.561 128.017 C 315.855 127.421,316.141 127.117,316.553 126.963 C 316.872 126.845,317.295 126.679,317.493 126.596 C 318.037 126.368,318.143 126.386,318.788 126.826 " stroke="none" fill="#2de3e2" fill-rule="evenodd"></path><path id="path1" d="M0.000 90.171 L 0.000 180.343 200.000 180.343 L 400.000 180.343 400.000 90.171 L 400.000 0.000 200.000 0.000 L 0.000 0.000 0.000 90.171 M70.562 17.129 C 77.780 17.330,81.781 17.586,83.534 17.958 C 84.199 18.099,85.123 18.215,85.588 18.215 C 86.053 18.215,87.132 18.293,87.987 18.388 C 89.969 18.610,94.251 18.917,98.287 19.127 C 102.789 19.361,105.757 19.602,106.731 19.813 C 108.686 20.237,111.959 20.580,117.313 20.923 C 123.206 21.300,124.441 21.452,124.434 21.796 C 124.431 21.967,123.217 22.723,122.946 22.723 C 122.692 22.723,122.092 23.349,122.092 23.614 C 122.092 23.904,121.157 24.527,120.721 24.527 C 120.099 24.527,119.041 25.063,118.144 25.831 C 117.709 26.205,117.208 26.510,117.032 26.510 C 116.129 26.510,113.620 27.374,112.353 28.120 C 111.836 28.425,107.943 29.212,106.928 29.218 C 106.688 29.219,105.965 29.391,105.320 29.601 C 102.730 30.442,102.060 30.495,91.975 30.651 C 76.977 30.885,77.889 30.560,76.222 36.258 C 76.061 36.808,75.786 37.416,75.611 37.610 C 75.163 38.107,74.752 39.060,74.489 40.216 C 74.365 40.762,74.150 41.475,74.012 41.801 C 73.873 42.126,73.760 42.479,73.760 42.584 C 73.760 42.690,73.586 43.020,73.374 43.318 C 73.162 43.616,72.843 44.411,72.666 45.085 C 72.179 46.941,71.835 47.872,71.251 48.915 C 70.958 49.437,70.549 50.577,70.340 51.448 C 69.928 53.169,69.737 53.682,69.150 54.644 C 68.938 54.991,68.658 55.721,68.528 56.267 C 68.149 57.847,67.625 59.371,67.288 59.867 C 66.781 60.615,66.404 61.687,66.176 63.030 C 65.895 64.685,65.517 65.928,65.024 66.817 C 64.804 67.214,64.524 68.025,64.403 68.620 C 63.966 70.768,63.238 72.858,62.928 72.858 C 62.701 72.858,61.858 76.147,61.858 77.031 C 61.858 77.228,61.545 78.054,61.164 78.866 C 60.782 79.678,60.372 80.789,60.251 81.335 C 59.563 84.461,59.325 85.241,58.877 85.843 C 58.766 85.992,58.581 86.438,58.466 86.835 C 57.860 88.926,57.710 89.560,57.710 90.018 C 57.710 90.294,57.578 90.827,57.417 91.202 C 56.153 94.156,56.135 94.210,55.649 96.573 C 55.283 98.351,55.026 99.197,54.744 99.549 C 54.410 99.966,53.814 102.250,53.567 104.058 C 53.425 105.103,53.001 106.790,52.843 106.943 C 52.513 107.263,52.122 108.283,51.946 109.288 C 51.427 112.249,51.080 113.486,50.581 114.157 C 50.253 114.598,49.737 116.729,49.401 119.026 C 49.161 120.670,48.949 121.425,48.515 122.182 C 48.071 122.958,47.629 124.551,47.615 125.428 C 47.603 126.195,46.981 128.636,46.618 129.342 C 46.103 130.345,45.268 133.906,45.267 135.107 C 45.266 135.653,44.753 137.779,44.556 138.052 C 44.077 138.718,43.748 140.235,43.188 144.364 C 42.736 147.698,42.531 148.833,42.294 149.324 C 41.948 150.037,41.683 153.004,41.514 158.047 C 41.359 162.683,41.355 162.715,40.922 163.048 C 40.194 163.608,37.297 163.355,35.618 162.585 C 34.467 162.057,33.791 161.825,33.007 161.689 C 32.098 161.531,30.658 160.841,30.658 160.563 C 30.658 160.432,30.537 160.325,30.388 160.325 C 30.239 160.325,30.117 160.250,30.117 160.159 C 30.117 160.068,29.813 159.808,29.441 159.582 C 29.069 159.356,28.724 159.121,28.674 159.059 C 28.625 158.997,28.441 158.893,28.266 158.828 C 28.091 158.764,27.864 158.486,27.763 158.210 C 27.383 157.183,26.426 155.383,26.035 154.962 C 25.576 154.465,25.518 154.236,25.242 151.799 C 24.946 149.185,25.310 144.098,25.917 142.381 C 26.427 140.937,26.737 139.747,27.138 137.692 C 27.293 136.898,27.509 135.803,27.618 135.257 C 27.727 134.711,28.101 133.671,28.448 132.944 C 28.840 132.123,29.138 131.167,29.233 130.419 C 29.504 128.285,30.120 126.240,30.492 126.240 C 30.560 126.240,30.658 126.057,30.709 125.834 C 30.831 125.301,31.518 122.559,31.759 121.641 C 31.864 121.244,32.132 120.636,32.356 120.289 C 32.830 119.553,33.363 118.059,33.363 117.470 C 33.363 116.722,33.860 115.138,34.492 113.873 C 34.834 113.186,35.171 112.381,35.239 112.083 C 35.556 110.708,36.154 108.984,36.429 108.656 C 36.876 108.123,37.511 106.802,37.511 106.405 C 37.511 105.714,38.303 103.047,38.583 102.795 C 38.912 102.500,39.438 101.083,39.953 99.104 C 40.107 98.511,40.345 97.903,40.482 97.751 C 40.963 97.219,42.381 93.101,42.381 92.235 C 42.381 92.205,42.482 92.072,42.606 91.940 C 42.983 91.536,43.442 90.496,43.713 89.430 C 43.963 88.450,44.111 88.105,45.170 86.046 C 45.444 85.512,45.812 84.487,45.988 83.766 C 46.164 83.045,46.571 81.980,46.893 81.399 C 47.216 80.818,47.554 80.059,47.645 79.711 C 47.737 79.364,47.887 78.780,47.980 78.412 C 48.073 78.045,48.310 77.477,48.506 77.150 C 49.193 76.003,49.955 74.442,49.955 74.181 C 49.955 73.680,50.566 72.043,51.079 71.169 C 51.362 70.686,51.839 69.553,52.138 68.653 C 52.669 67.054,53.166 66.005,53.391 66.005 C 53.504 66.005,53.909 64.789,54.290 63.300 C 54.531 62.359,54.912 61.486,55.471 60.595 C 55.689 60.248,56.086 59.262,56.353 58.403 C 56.621 57.544,56.977 56.692,57.145 56.509 C 57.603 56.011,58.158 54.847,58.421 53.832 C 58.549 53.336,58.963 52.310,59.341 51.552 C 59.719 50.794,60.152 49.779,60.303 49.298 C 60.775 47.792,61.033 47.175,61.427 46.617 C 61.637 46.321,61.910 45.753,62.035 45.356 C 62.160 44.959,62.373 44.368,62.510 44.043 C 62.647 43.717,62.759 43.310,62.759 43.138 C 62.759 42.966,62.962 42.526,63.210 42.161 C 63.458 41.797,63.661 41.422,63.661 41.330 C 63.661 41.238,63.774 41.069,63.912 40.954 C 64.050 40.840,64.206 40.525,64.258 40.256 C 64.437 39.332,64.748 38.220,64.926 37.866 C 65.024 37.671,65.171 37.369,65.252 37.196 C 65.334 37.022,65.526 36.637,65.680 36.339 C 66.510 34.733,66.655 32.332,65.951 31.870 C 64.548 30.951,48.443 31.119,43.192 32.107 C 42.361 32.264,40.616 32.391,33.544 32.814 C 26.631 33.228,22.658 33.618,21.551 33.992 C 19.676 34.625,15.807 34.968,15.337 34.543 C 14.754 34.015,15.126 31.605,15.922 30.748 C 16.106 30.550,16.534 29.814,16.872 29.113 C 17.271 28.287,17.738 27.636,18.202 27.264 C 18.595 26.948,19.050 26.467,19.212 26.194 C 19.375 25.922,19.844 25.541,20.255 25.349 C 20.665 25.156,21.291 24.703,21.646 24.341 C 22.085 23.893,22.776 23.499,23.814 23.104 C 24.652 22.785,25.652 22.308,26.037 22.043 C 26.866 21.471,27.746 21.120,28.855 20.918 C 30.284 20.657,30.990 20.430,31.780 19.976 C 33.022 19.264,33.733 19.138,40.848 18.372 C 41.839 18.265,43.016 18.070,43.463 17.938 C 46.193 17.130,57.981 16.779,70.562 17.129 M283.073 17.527 C 283.285 17.629,283.559 17.900,283.681 18.129 C 283.804 18.358,284.036 18.590,284.197 18.645 C 285.030 18.929,285.649 19.564,285.657 20.143 C 285.660 20.360,285.749 20.591,285.854 20.656 C 285.960 20.721,286.122 20.949,286.214 21.163 C 286.307 21.376,286.485 21.710,286.609 21.905 C 287.817 23.797,288.012 24.987,288.003 30.388 C 287.994 35.255,287.742 37.210,286.852 39.309 C 286.495 40.149,286.204 40.946,286.204 41.079 C 286.204 41.212,286.091 41.701,285.954 42.166 C 285.816 42.631,285.603 43.458,285.480 44.004 C 285.357 44.549,285.154 45.117,285.027 45.266 C 284.535 45.846,283.981 47.028,283.719 48.060 C 283.560 48.683,283.165 49.523,282.786 50.044 C 282.148 50.918,281.695 51.943,281.695 52.511 C 281.695 52.662,281.431 53.136,281.109 53.563 C 280.336 54.588,279.919 55.214,279.790 55.546 C 279.733 55.694,279.610 55.957,279.518 56.129 C 279.426 56.301,279.351 56.565,279.351 56.716 C 279.351 56.866,279.033 57.293,278.645 57.665 C 278.257 58.037,277.770 58.706,277.563 59.152 C 277.356 59.599,276.943 60.223,276.645 60.540 C 276.348 60.857,276.105 61.195,276.105 61.292 C 276.105 61.388,276.041 61.494,275.962 61.527 C 275.884 61.560,275.548 62.033,275.215 62.579 C 274.883 63.124,274.451 63.683,274.256 63.820 C 274.061 63.957,273.756 64.395,273.578 64.793 C 273.399 65.191,272.937 65.849,272.549 66.257 C 272.162 66.664,271.651 67.281,271.414 67.628 C 271.177 67.976,270.896 68.314,270.791 68.380 C 270.331 68.669,269.664 69.404,269.181 70.155 C 268.895 70.600,268.420 71.168,268.127 71.416 C 267.833 71.664,267.337 72.144,267.025 72.484 C 265.902 73.703,264.109 75.435,263.306 76.075 C 262.857 76.434,261.979 77.196,261.355 77.769 C 260.731 78.341,260.121 78.810,259.997 78.810 C 259.789 78.810,259.152 79.424,259.152 79.626 C 259.152 79.839,257.954 80.783,257.677 80.788 C 257.511 80.791,257.065 81.089,256.686 81.450 C 256.306 81.811,255.591 82.311,255.095 82.560 C 254.110 83.055,253.626 83.399,252.650 84.300 C 252.297 84.625,251.838 84.982,251.630 85.094 C 251.422 85.205,250.946 85.846,250.573 86.517 C 250.200 87.188,249.719 87.980,249.504 88.278 C 249.289 88.575,248.975 89.346,248.804 89.991 C 248.271 92.014,247.947 92.921,247.520 93.585 C 247.292 93.939,247.019 94.513,246.914 94.860 C 246.808 95.207,246.597 95.891,246.445 96.380 C 246.292 96.869,246.168 97.454,246.168 97.679 C 246.168 98.157,245.873 98.869,245.349 99.656 C 245.138 99.973,244.836 100.984,244.648 102.000 C 244.252 104.143,243.930 105.286,243.383 106.492 C 243.158 106.988,242.886 107.800,242.778 108.296 C 242.481 109.666,242.020 112.429,242.020 112.837 C 242.020 113.036,241.853 113.678,241.650 114.264 C 240.897 116.433,240.756 117.370,240.742 120.278 C 240.725 123.963,241.204 125.914,241.798 124.578 C 242.478 123.048,242.701 122.682,243.391 121.969 C 243.920 121.422,244.301 120.752,244.727 119.619 C 245.055 118.747,245.456 117.913,245.619 117.764 C 246.078 117.345,246.633 116.326,246.972 115.284 C 247.141 114.763,247.353 114.337,247.445 114.337 C 247.536 114.337,247.610 114.235,247.610 114.110 C 247.610 113.985,247.771 113.783,247.967 113.660 C 248.279 113.466,249.413 111.351,249.414 110.963 C 249.414 110.885,249.729 110.466,250.114 110.033 C 250.498 109.600,250.917 108.930,251.044 108.545 C 251.171 108.160,251.325 107.845,251.386 107.845 C 251.446 107.845,251.649 107.561,251.836 107.214 C 252.023 106.867,252.242 106.583,252.323 106.583 C 252.404 106.583,252.718 106.083,253.021 105.471 C 253.324 104.860,253.850 104.053,254.190 103.676 C 254.530 103.300,254.967 102.684,255.161 102.307 C 255.355 101.931,255.684 101.444,255.891 101.225 C 256.098 101.006,256.267 100.742,256.267 100.639 C 256.267 100.535,256.368 100.448,256.492 100.444 C 256.745 100.436,257.603 99.268,257.791 98.674 C 257.859 98.461,257.987 98.287,258.076 98.287 C 258.362 98.287,259.316 97.244,259.427 96.811 C 259.486 96.581,259.874 96.161,260.290 95.878 C 260.706 95.594,261.266 95.049,261.536 94.667 C 261.805 94.284,262.351 93.765,262.749 93.514 C 263.146 93.263,263.602 92.859,263.762 92.615 C 263.922 92.371,264.405 91.965,264.835 91.712 C 265.266 91.460,265.807 91.021,266.037 90.737 C 266.268 90.453,267.024 89.949,267.719 89.616 C 268.413 89.284,269.346 88.719,269.793 88.361 C 270.342 87.921,271.128 87.551,272.227 87.217 C 273.120 86.946,273.972 86.648,274.121 86.554 C 276.518 85.043,283.722 85.006,285.488 86.496 C 285.639 86.624,286.207 86.850,286.750 86.999 C 288.799 87.561,289.196 87.754,290.037 88.593 C 290.509 89.064,291.004 89.450,291.138 89.450 C 291.506 89.450,293.883 91.852,294.222 92.566 C 294.386 92.911,294.840 93.450,295.231 93.765 C 295.622 94.079,295.942 94.476,295.942 94.646 C 295.942 94.816,296.111 95.401,296.318 95.945 C 296.525 96.489,296.742 97.096,296.800 97.295 C 296.858 97.493,297.067 97.940,297.263 98.287 C 298.010 99.607,298.150 106.405,297.441 106.926 C 297.160 107.132,295.942 110.122,295.942 110.604 C 295.942 110.749,295.637 111.141,295.265 111.475 C 294.892 111.809,294.425 112.395,294.228 112.776 C 294.030 113.157,293.688 113.644,293.468 113.858 C 293.248 114.072,292.883 114.448,292.657 114.694 C 292.430 114.940,292.012 115.345,291.726 115.596 C 291.441 115.846,290.755 116.477,290.203 116.997 C 289.650 117.518,289.106 117.944,288.993 117.944 C 288.881 117.944,288.430 118.276,287.992 118.682 C 287.079 119.528,286.639 119.776,285.428 120.124 C 284.952 120.261,284.217 120.658,283.795 121.007 C 283.229 121.474,282.721 121.701,281.865 121.869 C 279.383 122.355,278.137 122.669,277.096 123.071 C 276.501 123.300,275.568 123.590,275.023 123.715 C 272.686 124.249,272.165 125.253,272.868 127.863 C 273.069 128.607,273.298 129.836,273.378 130.593 C 273.505 131.800,274.043 133.315,274.458 133.634 C 274.522 133.683,274.728 134.049,274.916 134.445 C 275.103 134.842,275.325 135.308,275.410 135.480 C 275.494 135.652,275.564 135.906,275.564 136.043 C 275.564 136.372,276.234 137.881,276.515 138.184 C 276.943 138.647,277.547 139.573,277.547 139.767 C 277.547 139.875,277.943 140.359,278.428 140.843 C 278.912 141.328,279.488 141.977,279.709 142.287 C 279.929 142.596,280.547 143.097,281.083 143.399 C 281.618 143.701,282.056 144.015,282.056 144.098 C 282.056 144.180,282.515 144.472,283.076 144.747 C 285.082 145.728,290.051 145.425,291.692 144.222 C 292.200 143.849,292.719 143.572,293.417 143.300 C 294.097 143.035,294.860 142.413,294.860 142.123 C 294.860 142.017,294.982 141.930,295.131 141.930 C 295.280 141.930,295.401 141.854,295.401 141.761 C 295.401 141.669,295.581 141.536,295.800 141.467 C 296.225 141.332,297.205 140.436,297.205 140.183 C 297.205 140.099,297.517 139.838,297.900 139.601 C 298.282 139.365,298.788 138.859,299.024 138.477 C 299.261 138.095,299.496 137.780,299.547 137.779 C 299.815 137.771,300.796 136.701,301.074 136.114 C 301.250 135.742,301.456 135.437,301.532 135.437 C 301.799 135.437,302.795 134.284,302.795 133.974 C 302.795 133.803,303.192 133.237,303.677 132.718 C 304.613 131.716,304.865 131.082,305.388 128.404 C 305.534 127.660,305.815 126.605,306.014 126.060 C 306.213 125.514,306.639 124.217,306.961 123.177 C 307.470 121.533,307.648 121.189,308.327 120.539 C 308.756 120.127,309.107 119.706,309.107 119.603 C 309.107 119.499,309.354 119.225,309.654 118.995 C 310.244 118.543,310.950 117.880,311.569 117.199 C 311.782 116.964,312.553 116.536,313.282 116.249 C 314.011 115.961,314.973 115.512,315.419 115.252 C 315.866 114.991,316.434 114.690,316.682 114.582 C 317.275 114.323,318.171 113.568,319.289 112.382 C 319.789 111.853,320.585 111.012,321.057 110.514 C 321.529 110.016,321.963 109.418,322.021 109.184 C 322.080 108.951,322.280 108.711,322.466 108.652 C 322.857 108.528,323.895 107.328,323.895 107.001 C 323.895 106.879,324.215 106.523,324.607 106.208 C 324.998 105.894,325.450 105.358,325.612 105.017 C 325.774 104.676,326.227 104.098,326.619 103.732 C 327.011 103.365,327.553 102.630,327.823 102.098 C 328.093 101.566,328.392 100.982,328.488 100.800 C 328.583 100.619,328.833 100.379,329.042 100.267 C 329.252 100.155,329.571 99.704,329.752 99.266 C 329.932 98.828,330.348 98.157,330.675 97.776 C 331.243 97.112,332.191 95.237,332.191 94.777 C 332.191 94.657,332.501 94.119,332.880 93.582 C 333.259 93.045,333.674 92.322,333.803 91.975 C 333.932 91.628,334.149 91.088,334.286 90.775 C 334.423 90.463,334.536 90.115,334.536 90.003 C 334.536 89.891,334.735 89.405,334.979 88.923 C 335.358 88.176,335.451 87.630,335.619 85.187 C 335.987 79.826,336.300 78.429,337.335 77.519 C 337.670 77.225,338.001 76.808,338.069 76.593 C 338.277 75.938,338.912 75.203,339.270 75.203 C 339.457 75.203,339.759 75.122,339.943 75.024 C 340.667 74.637,342.704 74.479,344.076 74.703 C 345.435 74.926,346.438 75.731,346.438 76.600 C 346.438 76.743,346.577 77.095,346.746 77.381 C 347.019 77.844,347.026 77.979,346.803 78.582 C 346.187 80.254,346.288 87.265,346.950 88.763 C 347.514 90.038,348.242 93.265,348.242 94.492 C 348.242 94.713,348.554 95.515,348.936 96.275 C 349.318 97.034,349.734 98.102,349.861 98.647 C 350.205 100.133,350.958 102.306,351.239 102.629 C 351.376 102.786,351.488 103.006,351.488 103.119 C 351.488 103.232,351.602 103.591,351.741 103.916 C 351.879 104.242,352.088 105.158,352.203 105.951 C 352.347 106.937,352.634 107.851,353.110 108.837 C 353.875 110.421,354.018 110.903,354.467 113.436 C 354.775 115.171,355.228 116.682,355.440 116.682 C 355.504 116.682,355.667 117.351,355.802 118.170 C 355.938 118.988,356.117 120.063,356.201 120.559 C 356.285 121.055,356.425 124.187,356.513 127.520 C 356.707 134.860,356.608 134.536,358.653 134.536 C 359.915 134.536,360.063 134.493,360.866 133.904 C 361.339 133.557,361.854 133.273,362.010 133.273 C 362.692 133.273,364.180 132.493,364.932 131.742 C 365.379 131.295,365.845 130.929,365.967 130.929 C 366.244 130.929,367.178 130.079,367.178 129.827 C 367.178 129.605,367.631 129.125,367.841 129.125 C 368.074 129.125,369.269 127.987,369.392 127.648 C 369.453 127.480,369.730 127.199,370.008 127.024 C 370.676 126.603,371.191 126.073,371.472 125.517 C 371.597 125.268,371.963 124.885,372.284 124.665 C 372.605 124.445,373.109 123.803,373.404 123.237 C 373.699 122.672,374.276 121.895,374.685 121.511 C 375.204 121.023,375.524 120.513,375.740 119.824 C 375.996 119.011,376.155 118.792,376.633 118.592 C 377.010 118.435,377.301 118.135,377.459 117.741 C 377.593 117.406,377.849 116.941,378.028 116.707 L 378.352 116.281 378.521 116.725 C 378.875 117.654,378.549 119.337,377.923 119.814 C 377.354 120.248,376.924 121.285,376.651 122.876 C 376.580 123.293,376.322 123.775,376.003 124.087 C 375.712 124.372,375.473 124.689,375.473 124.791 C 375.473 124.894,375.403 124.977,375.318 124.977 C 375.232 124.977,375.022 125.363,374.852 125.834 C 374.682 126.305,374.464 126.898,374.369 127.152 C 374.274 127.406,373.971 127.747,373.696 127.909 C 373.417 128.074,372.981 128.644,372.707 129.206 C 372.437 129.757,372.133 130.207,372.031 130.207 C 371.784 130.207,370.784 131.313,370.784 131.586 C 370.784 131.706,370.529 131.992,370.217 132.223 C 369.905 132.453,369.279 133.007,368.825 133.454 C 368.372 133.900,367.692 134.404,367.314 134.574 C 366.937 134.744,366.497 135.110,366.338 135.388 C 366.134 135.743,365.666 136.049,364.764 136.418 C 364.055 136.708,363.163 137.244,362.772 137.615 C 362.218 138.140,361.824 138.334,360.969 138.500 C 359.520 138.781,358.391 139.187,357.623 139.704 C 357.277 139.936,356.877 140.126,356.734 140.126 C 355.757 140.126,354.583 140.947,353.957 142.068 C 353.778 142.389,353.390 142.915,353.095 143.237 C 352.800 143.560,352.302 144.351,351.990 144.995 C 351.678 145.640,351.341 146.200,351.243 146.238 C 350.848 146.394,349.871 147.523,349.765 147.946 C 349.695 148.224,349.409 148.511,349.019 148.697 C 348.357 149.011,347.914 149.336,347.273 149.979 C 347.062 150.191,346.285 150.678,345.547 151.061 C 344.809 151.445,344.013 151.921,343.777 152.119 C 343.279 152.539,341.475 153.240,340.307 153.468 C 339.276 153.669,338.488 153.894,337.241 154.344 C 334.261 155.419,325.548 155.381,323.084 154.283 C 321.889 153.749,320.990 153.472,320.462 153.472 C 319.665 153.472,317.621 152.650,317.277 152.191 C 317.157 152.033,316.356 151.546,315.495 151.110 C 314.635 150.673,313.890 150.211,313.841 150.082 C 313.717 149.760,312.725 148.783,312.521 148.783 C 312.314 148.783,311.325 147.431,311.166 146.930 C 311.034 146.514,310.869 146.284,310.144 145.503 C 309.872 145.208,309.648 144.893,309.648 144.801 C 309.648 144.710,309.578 144.635,309.492 144.635 C 309.407 144.635,309.190 144.249,309.011 143.778 C 308.833 143.307,308.391 142.516,308.031 142.020 C 307.670 141.524,307.224 140.794,307.040 140.397 C 306.175 138.534,305.753 138.350,304.668 139.360 C 304.269 139.732,303.661 140.250,303.317 140.512 C 302.974 140.773,302.496 141.370,302.255 141.838 C 302.014 142.306,301.652 142.756,301.450 142.838 C 301.248 142.920,300.920 143.201,300.721 143.463 C 300.523 143.724,300.125 144.156,299.837 144.422 C 298.765 145.412,298.187 146.015,297.856 146.490 C 297.668 146.759,297.425 146.981,297.315 146.982 C 297.037 146.986,295.942 147.974,295.942 148.220 C 295.942 148.331,295.821 148.422,295.672 148.422 C 295.523 148.422,295.401 148.503,295.401 148.602 C 295.401 148.702,295.278 148.783,295.127 148.783 C 294.976 148.783,294.532 148.986,294.139 149.234 C 293.746 149.482,293.351 149.684,293.260 149.684 C 293.169 149.684,293.050 149.803,292.995 149.947 C 292.867 150.281,291.679 151.031,291.023 151.193 C 290.222 151.391,288.548 152.204,288.548 152.395 C 288.548 152.491,288.402 152.570,288.224 152.570 C 288.045 152.570,287.822 152.638,287.728 152.721 C 286.526 153.782,277.572 153.328,276.392 152.147 C 276.203 151.957,275.634 151.606,275.129 151.367 C 274.624 151.127,274.054 150.833,273.861 150.714 C 273.018 150.188,270.153 147.446,270.153 147.164 C 270.153 147.062,270.085 146.979,270.002 146.979 C 269.919 146.979,269.696 146.656,269.506 146.260 C 269.316 145.864,269.112 145.540,269.051 145.539 C 268.798 145.534,267.922 144.491,267.536 143.734 C 267.307 143.287,266.869 142.643,266.563 142.303 C 266.256 141.963,266.003 141.557,266.000 141.401 C 265.997 141.246,265.875 140.961,265.729 140.768 C 265.584 140.576,265.464 140.284,265.464 140.119 C 265.464 139.739,265.035 138.874,264.616 138.411 C 264.184 137.933,263.870 137.086,263.479 135.347 C 262.955 133.018,262.635 131.925,262.255 131.179 C 261.485 129.665,260.925 122.439,261.495 121.375 C 261.750 120.898,262.695 120.389,263.838 120.112 C 264.382 119.981,265.193 119.654,265.641 119.387 C 266.090 119.120,266.943 118.804,267.538 118.686 C 268.133 118.567,268.945 118.388,269.342 118.287 C 269.739 118.186,270.266 118.055,270.514 117.997 C 270.762 117.938,271.005 117.834,271.055 117.764 C 271.214 117.542,272.862 116.682,273.129 116.682 C 273.271 116.682,273.654 116.567,273.979 116.426 C 274.305 116.286,274.860 116.046,275.212 115.894 C 275.565 115.741,275.995 115.459,276.169 115.267 C 276.343 115.075,277.000 114.665,277.629 114.355 C 278.258 114.045,279.045 113.525,279.377 113.198 C 279.710 112.872,280.357 112.308,280.814 111.946 C 281.272 111.583,281.800 110.992,281.987 110.631 C 282.173 110.270,282.407 109.820,282.504 109.631 C 282.602 109.442,282.744 109.288,282.820 109.288 C 282.896 109.288,282.958 109.166,282.958 109.017 C 282.958 108.868,283.020 108.747,283.097 108.747 C 283.822 108.747,284.542 104.086,284.061 102.507 C 283.973 102.219,283.799 101.644,283.675 101.228 C 283.444 100.458,281.073 98.044,280.186 97.677 C 279.603 97.435,276.861 97.033,275.765 97.028 C 274.134 97.022,270.298 97.762,270.184 98.106 C 270.150 98.205,270.008 98.287,269.868 98.287 C 269.727 98.287,269.612 98.349,269.612 98.426 C 269.612 98.601,268.667 99.088,267.719 99.401 C 267.322 99.532,266.890 99.741,266.759 99.865 C 266.628 99.989,266.466 100.091,266.398 100.092 C 266.331 100.093,265.977 100.377,265.612 100.723 C 265.246 101.069,264.898 101.353,264.838 101.353 C 264.681 101.353,264.227 101.732,263.777 102.238 C 263.564 102.477,263.133 102.923,262.819 103.230 C 260.284 105.702,259.601 106.446,258.914 107.484 C 258.553 108.030,258.016 108.725,257.721 109.029 C 257.426 109.333,257.028 109.941,256.837 110.381 C 256.474 111.220,255.886 111.993,255.613 111.993 C 255.362 111.993,254.555 113.435,254.276 114.382 C 254.138 114.853,253.938 115.239,253.833 115.239 C 253.549 115.239,252.660 116.693,252.660 117.158 C 252.660 117.380,252.574 117.615,252.469 117.680 C 252.363 117.746,252.199 117.974,252.104 118.187 C 252.009 118.401,251.692 118.900,251.400 119.297 C 251.108 119.693,250.866 120.109,250.863 120.221 C 250.852 120.592,250.109 122.118,249.779 122.449 C 249.362 122.865,248.512 124.549,248.512 124.958 C 248.512 125.129,248.393 125.427,248.247 125.619 C 248.102 125.812,247.980 126.099,247.977 126.257 C 247.974 126.415,247.808 126.692,247.609 126.872 C 247.200 127.243,246.709 128.150,246.709 128.536 C 246.709 128.955,245.768 131.184,245.509 131.380 C 245.259 131.568,244.364 133.710,244.364 134.120 C 244.364 134.340,244.068 134.974,242.991 137.060 C 242.761 137.507,242.569 138.034,242.565 138.233 C 242.548 139.034,241.735 141.198,241.362 141.435 C 241.161 141.562,240.553 143.269,240.012 145.225 C 239.881 145.699,239.563 146.317,239.306 146.599 C 239.048 146.882,238.728 147.387,238.595 147.722 C 238.462 148.058,238.245 148.460,238.113 148.617 C 237.980 148.773,237.872 148.973,237.872 149.060 C 237.872 149.311,236.561 150.586,236.302 150.586 C 236.174 150.586,236.069 150.661,236.069 150.752 C 236.069 150.843,235.521 151.101,234.851 151.325 C 232.370 152.156,229.373 151.778,228.314 150.501 C 228.066 150.203,227.600 149.692,227.279 149.367 C 226.958 149.042,226.647 148.554,226.588 148.283 C 226.529 148.012,226.397 147.547,226.296 147.250 C 226.194 146.952,226.003 146.060,225.872 145.266 C 225.740 144.472,225.541 143.336,225.429 142.741 C 225.318 142.146,225.198 139.401,225.164 136.642 C 225.093 130.925,225.226 131.464,223.865 131.351 C 222.832 131.266,222.800 131.278,222.092 131.990 C 221.695 132.388,221.306 132.718,221.228 132.723 C 221.053 132.734,220.881 132.866,219.818 133.803 C 219.360 134.206,218.907 134.536,218.811 134.536 C 218.715 134.536,218.197 134.941,217.659 135.436 C 217.122 135.932,216.578 136.337,216.451 136.338 C 216.095 136.340,214.214 137.348,213.670 137.829 C 213.402 138.065,212.834 138.361,212.408 138.486 C 211.981 138.611,211.186 138.841,210.640 138.997 C 209.396 139.353,208.476 139.743,208.476 139.914 C 208.476 139.987,207.996 140.189,207.409 140.363 C 206.346 140.679,205.230 141.548,205.230 142.060 C 205.230 142.415,204.482 143.534,203.764 144.251 C 203.603 144.413,203.287 144.910,203.062 145.356 C 202.837 145.802,202.218 146.581,201.687 147.087 C 201.156 147.593,200.721 148.093,200.721 148.197 C 200.721 148.302,200.346 148.607,199.888 148.876 C 198.879 149.467,198.378 149.882,198.374 150.130 C 198.372 150.232,197.702 150.632,196.886 151.019 C 196.069 151.407,195.136 151.953,194.812 152.234 C 194.488 152.515,194.001 152.790,193.730 152.844 C 193.459 152.899,192.981 153.024,192.669 153.122 C 192.356 153.221,191.626 153.423,191.046 153.571 C 190.466 153.719,189.585 154.013,189.089 154.225 C 186.576 155.298,177.047 155.430,174.482 154.426 C 172.562 153.676,171.926 153.472,171.503 153.472 C 171.251 153.472,170.885 153.365,170.689 153.235 C 170.494 153.105,169.990 152.890,169.570 152.756 C 169.150 152.623,168.668 152.361,168.499 152.175 C 168.330 151.988,167.822 151.672,167.371 151.472 C 166.919 151.272,166.241 150.788,165.865 150.397 C 165.488 150.005,165.102 149.684,165.007 149.684 C 164.911 149.684,164.833 149.603,164.833 149.504 C 164.833 149.405,164.754 149.324,164.657 149.324 C 164.438 149.324,162.489 147.360,162.489 147.140 C 162.489 147.051,162.417 146.979,162.329 146.979 C 162.242 146.979,162.121 146.837,162.061 146.664 C 161.856 146.068,161.185 145.085,160.665 144.619 C 160.379 144.362,160.144 144.040,160.144 143.903 C 160.144 143.191,159.271 141.450,158.482 140.589 C 158.306 140.397,157.874 139.649,157.522 138.926 C 156.719 137.279,156.650 137.241,155.845 138.011 C 155.482 138.358,154.836 138.857,154.410 139.121 C 153.983 139.385,153.590 139.718,153.534 139.862 C 153.479 140.005,153.017 140.425,152.506 140.795 C 151.996 141.164,151.513 141.571,151.433 141.699 C 151.149 142.156,150.451 142.831,150.264 142.831 C 150.159 142.831,149.694 143.211,149.229 143.675 C 148.765 144.140,148.089 144.678,147.727 144.871 C 147.366 145.065,146.873 145.435,146.633 145.693 C 146.226 146.130,144.031 147.520,143.747 147.520 C 143.677 147.520,143.389 147.761,143.107 148.056 C 142.632 148.552,141.315 149.098,139.856 149.406 C 139.558 149.469,138.828 149.751,138.233 150.033 C 134.883 151.619,128.030 151.581,125.068 149.959 C 124.472 149.633,123.762 149.315,123.490 149.251 C 123.217 149.188,122.994 149.057,122.994 148.960 C 122.994 148.862,122.892 148.782,122.768 148.780 C 122.552 148.778,121.387 147.629,119.831 145.885 C 118.764 144.688,118.305 143.995,118.305 143.578 C 118.305 143.159,117.980 142.331,117.657 141.930 C 117.248 141.420,116.661 140.260,116.393 139.426 C 115.596 136.956,115.298 136.748,114.164 137.865 C 113.707 138.315,113.274 138.683,113.202 138.683 C 112.971 138.683,111.993 139.637,111.993 139.863 C 111.993 139.982,111.648 140.402,111.226 140.796 C 110.805 141.189,110.266 141.779,110.030 142.106 C 109.121 143.364,106.098 146.460,103.685 148.602 C 101.352 150.674,100.887 151.056,100.382 151.311 C 100.096 151.456,99.665 151.832,99.425 152.148 C 99.085 152.594,98.698 152.805,97.690 153.096 C 95.605 153.699,95.215 153.847,94.584 154.275 C 92.914 155.408,86.476 155.267,84.083 154.044 C 83.514 153.753,82.658 153.375,82.180 153.204 C 81.371 152.913,78.449 150.320,78.449 149.893 C 78.449 149.812,78.246 149.637,77.998 149.504 C 77.750 149.371,77.547 149.155,77.547 149.023 C 77.547 148.891,77.478 148.783,77.392 148.783 C 77.307 148.783,77.061 148.235,76.846 147.565 C 76.411 146.211,75.915 145.176,75.703 145.176 C 75.626 145.176,75.564 145.030,75.564 144.851 C 75.564 144.673,75.464 144.427,75.342 144.305 C 74.695 143.658,75.170 133.886,75.927 132.281 C 76.239 131.618,76.625 130.079,76.989 128.043 C 77.120 127.306,77.616 126.131,78.392 124.716 C 78.552 124.423,78.748 123.936,78.826 123.634 C 79.150 122.389,79.738 120.914,80.049 120.568 C 80.481 120.087,80.853 119.386,81.439 117.947 C 81.701 117.304,82.057 116.679,82.229 116.558 C 82.401 116.438,82.847 115.715,83.218 114.952 C 83.590 114.190,84.071 113.395,84.287 113.185 C 84.504 112.976,84.937 112.269,85.250 111.616 C 85.563 110.962,86.034 110.286,86.297 110.114 C 86.560 109.942,86.894 109.516,87.039 109.168 C 87.185 108.820,87.648 108.198,88.069 107.785 C 88.489 107.371,89.060 106.733,89.336 106.367 C 89.612 106.000,90.177 105.348,90.591 104.917 C 91.005 104.486,91.912 103.496,92.606 102.716 C 94.486 100.603,94.975 100.090,95.104 100.090 C 95.168 100.090,95.371 99.948,95.554 99.775 C 95.738 99.601,96.440 99.013,97.116 98.467 C 97.791 97.922,98.845 97.009,99.458 96.438 C 100.070 95.868,100.633 95.401,100.708 95.401 C 100.783 95.401,101.173 95.035,101.574 94.587 C 101.975 94.139,102.596 93.633,102.955 93.463 C 103.313 93.294,103.793 92.935,104.019 92.666 C 104.246 92.397,105.056 91.868,105.817 91.490 C 106.579 91.112,107.343 90.665,107.514 90.497 C 107.927 90.091,108.623 89.740,109.915 89.286 C 110.499 89.081,111.023 88.843,111.079 88.758 C 111.339 88.361,112.742 87.684,113.886 87.403 C 115.753 86.943,116.358 86.728,116.890 86.335 C 117.153 86.141,117.680 85.918,118.062 85.839 C 118.443 85.761,119.243 85.592,119.838 85.463 C 123.154 84.745,133.179 85.334,134.231 86.310 C 134.630 86.680,137.099 87.647,137.645 87.647 C 137.785 87.647,138.137 87.935,138.427 88.287 C 138.717 88.639,139.220 89.055,139.546 89.212 C 139.871 89.368,140.317 89.733,140.537 90.021 C 140.758 90.310,141.319 90.939,141.785 91.419 C 142.252 91.899,142.691 92.522,142.762 92.805 C 142.833 93.087,143.256 94.010,143.703 94.856 C 145.142 97.582,145.035 100.748,143.428 103.000 C 143.100 103.459,142.829 103.946,142.825 104.082 C 142.819 104.353,142.217 105.140,142.017 105.140 C 141.378 105.140,138.503 106.864,138.334 107.349 C 137.944 108.468,138.573 110.189,139.371 110.189 C 140.601 110.189,140.800 114.603,139.627 115.878 C 139.449 116.072,139.154 116.637,138.973 117.133 C 138.422 118.635,137.804 119.880,137.561 119.977 C 137.434 120.027,137.200 120.341,137.040 120.675 C 136.107 122.621,135.683 123.396,135.331 123.806 C 135.114 124.059,134.837 124.528,134.716 124.847 C 134.372 125.759,133.931 126.596,133.613 126.940 C 133.249 127.333,132.875 128.181,132.450 129.576 C 132.269 130.171,131.799 131.348,131.407 132.191 L 130.693 133.724 130.676 136.159 C 130.654 139.123,130.771 139.728,131.519 140.524 C 131.839 140.865,132.405 141.517,132.777 141.973 C 134.026 143.503,140.848 143.631,140.848 142.125 C 140.848 142.041,140.990 141.928,141.163 141.875 C 142.651 141.417,143.796 140.855,144.635 140.172 C 145.180 139.727,145.807 139.294,146.027 139.210 C 146.247 139.126,146.827 138.649,147.317 138.149 C 147.806 137.649,148.329 137.241,148.480 137.241 C 148.727 137.241,150.045 135.883,150.045 135.629 C 150.045 135.572,150.282 135.421,150.571 135.292 C 150.861 135.164,151.323 134.759,151.599 134.392 C 151.875 134.025,152.490 133.348,152.966 132.888 C 153.443 132.429,153.832 131.962,153.832 131.852 C 153.832 131.741,154.146 131.327,154.530 130.932 C 154.913 130.536,155.562 129.542,155.971 128.722 C 156.381 127.903,156.863 126.988,157.044 126.691 C 157.224 126.393,157.520 125.419,157.700 124.527 C 157.881 123.634,158.099 122.826,158.185 122.732 C 158.271 122.638,158.343 122.435,158.346 122.281 C 158.349 122.128,158.653 121.652,159.022 121.224 C 159.391 120.796,159.859 120.153,160.062 119.795 C 160.265 119.438,160.585 119.058,160.774 118.951 C 161.355 118.621,162.489 117.538,162.489 117.313 C 162.489 117.196,162.815 116.993,163.213 116.861 C 163.611 116.730,164.027 116.514,164.136 116.381 C 164.246 116.249,164.470 116.141,164.632 116.141 C 165.100 116.141,166.830 115.463,167.186 115.141 C 167.364 114.980,167.828 114.673,168.218 114.458 C 168.989 114.032,169.883 113.353,169.883 113.193 C 169.883 113.138,170.691 112.265,171.678 111.253 C 173.776 109.103,174.385 108.363,174.815 107.439 C 174.988 107.067,175.195 106.763,175.275 106.763 C 175.496 106.763,176.375 105.905,176.375 105.689 C 176.375 105.585,176.456 105.500,176.555 105.500 C 176.655 105.500,176.736 105.351,176.736 105.169 C 176.736 104.987,177.095 104.501,177.535 104.089 C 177.974 103.677,178.390 103.161,178.460 102.942 C 178.529 102.723,178.911 102.197,179.309 101.773 C 180.243 100.776,180.404 100.530,180.781 99.528 C 180.954 99.070,181.360 98.421,181.684 98.085 C 182.009 97.750,182.383 97.151,182.517 96.754 C 182.650 96.357,183.068 95.557,183.445 94.975 C 183.821 94.393,184.130 93.855,184.130 93.780 C 184.130 93.704,184.252 93.541,184.400 93.417 C 184.549 93.294,184.671 93.003,184.671 92.770 C 184.671 92.537,184.821 92.080,185.004 91.755 C 185.187 91.429,185.590 90.716,185.899 90.169 C 186.559 89.001,186.831 87.165,186.834 83.871 C 186.835 81.561,187.171 79.971,187.854 79.047 C 188.087 78.731,188.278 78.419,188.278 78.353 C 188.278 77.935,189.872 75.749,190.343 75.520 C 191.915 74.758,192.720 74.580,194.455 74.610 C 196.499 74.647,197.926 75.458,198.215 76.748 C 198.443 77.767,198.199 81.608,197.805 83.198 C 197.620 83.944,197.725 85.293,198.103 87.015 C 198.234 87.610,198.475 88.909,198.639 89.901 C 198.804 90.893,199.027 92.232,199.135 92.876 C 199.308 93.905,199.729 95.133,200.001 95.401 C 200.162 95.559,200.675 97.257,200.900 98.377 C 201.167 99.705,201.568 100.724,202.112 101.460 C 202.339 101.767,202.525 102.102,202.525 102.206 C 202.525 102.309,202.640 102.788,202.780 103.271 C 202.920 103.753,203.135 104.716,203.258 105.410 C 203.381 106.105,203.655 106.957,203.867 107.304 C 204.488 108.320,204.831 109.292,205.047 110.640 C 205.272 112.047,205.590 113.179,206.213 114.788 C 206.801 116.307,207.009 117.352,207.218 119.838 C 207.394 121.936,207.598 123.815,207.911 126.240 C 207.997 126.908,207.989 128.227,207.893 129.306 C 207.633 132.208,207.755 133.774,208.275 134.195 C 208.998 134.780,210.985 134.614,211.903 133.892 C 212.051 133.775,212.498 133.583,212.894 133.465 C 214.364 133.027,215.080 132.630,215.914 131.790 C 216.385 131.316,216.873 130.929,216.998 130.929 C 217.311 130.929,218.215 130.068,218.215 129.770 C 218.215 129.636,218.478 129.396,218.801 129.237 C 219.588 128.847,220.018 128.498,220.018 128.249 C 220.018 128.136,220.099 128.043,220.198 128.043 C 220.298 128.043,220.379 127.919,220.379 127.767 C 220.379 127.615,220.666 127.320,221.018 127.113 C 221.377 126.901,221.822 126.410,222.034 125.992 C 222.242 125.583,222.806 124.858,223.289 124.381 C 223.771 123.905,224.166 123.404,224.166 123.269 C 224.166 123.134,224.227 122.997,224.301 122.964 C 224.664 122.802,225.936 120.824,226.137 120.108 C 226.443 119.014,226.858 118.157,227.323 117.656 C 227.753 117.191,228.674 113.408,228.674 112.106 C 228.674 111.932,228.870 111.369,229.109 110.854 C 229.762 109.450,230.659 106.200,230.662 105.230 C 230.664 104.748,231.043 103.716,231.429 103.141 C 231.746 102.670,232.226 100.974,232.649 98.828 C 232.777 98.183,233.166 97.091,233.514 96.402 C 234.111 95.218,234.221 94.863,234.604 92.876 C 234.764 92.049,235.102 91.230,235.682 90.261 C 235.860 89.964,236.052 89.558,236.107 89.360 C 236.163 89.161,236.419 88.228,236.676 87.286 C 236.934 86.344,237.415 85.045,237.745 84.400 C 238.075 83.756,238.447 82.782,238.572 82.236 C 238.696 81.691,238.993 80.879,239.230 80.433 C 240.182 78.641,240.701 77.405,240.933 76.375 C 241.068 75.780,241.286 75.165,241.418 75.008 C 241.551 74.852,241.659 74.629,241.659 74.512 C 241.659 74.396,241.720 74.301,241.794 74.300 C 241.946 74.300,242.369 73.258,242.811 71.796 C 242.973 71.261,243.382 70.438,243.720 69.967 C 244.059 69.496,244.477 68.676,244.651 68.144 C 245.320 66.094,245.495 65.660,245.781 65.337 C 246.122 64.953,246.626 63.958,246.811 63.300 C 247.041 62.487,247.769 61.018,248.064 60.773 C 248.366 60.523,248.710 59.799,249.177 58.431 C 249.330 57.985,249.726 57.249,250.056 56.796 C 250.387 56.344,250.793 55.574,250.959 55.086 C 251.125 54.598,251.553 53.751,251.911 53.204 C 252.268 52.657,252.671 51.966,252.805 51.668 C 253.398 50.356,253.653 49.913,254.036 49.530 C 254.461 49.105,255.365 47.440,255.365 47.082 C 255.365 46.844,255.852 46.053,256.309 45.549 C 256.483 45.357,256.778 44.911,256.965 44.557 C 258.012 42.570,258.277 42.130,258.589 41.859 C 258.778 41.695,259.065 41.244,259.227 40.857 C 259.389 40.470,259.805 39.807,260.153 39.383 C 260.741 38.664,261.858 36.643,261.858 36.296 C 261.858 36.211,262.182 35.825,262.579 35.437 C 262.976 35.050,263.300 34.624,263.300 34.492 C 263.300 34.359,263.703 33.855,264.195 33.370 C 264.687 32.886,265.376 31.936,265.725 31.258 C 266.074 30.581,266.558 29.842,266.801 29.615 C 267.043 29.388,267.417 28.841,267.631 28.399 C 267.845 27.957,268.277 27.414,268.591 27.194 C 269.330 26.674,269.612 26.396,269.612 26.186 C 269.612 25.951,272.263 23.056,273.134 22.341 C 273.330 22.180,273.774 21.717,274.121 21.311 C 274.468 20.906,274.836 20.570,274.939 20.566 C 275.041 20.562,275.262 20.327,275.430 20.043 C 275.624 19.714,276.178 19.316,276.957 18.946 C 277.629 18.626,278.341 18.223,278.539 18.048 C 279.470 17.232,281.886 16.954,283.073 17.527 M277.827 36.159 C 277.393 36.605,276.970 36.970,276.885 36.970 C 276.801 36.970,276.490 37.266,276.193 37.627 C 275.694 38.235,275.200 38.748,274.166 39.732 C 273.943 39.945,273.760 40.183,273.760 40.262 C 273.760 40.399,272.875 41.833,272.675 42.020 C 272.282 42.387,271.431 43.669,271.220 44.212 C 271.080 44.574,270.674 45.185,270.319 45.569 C 269.964 45.952,269.526 46.653,269.346 47.125 C 269.165 47.597,268.949 48.026,268.864 48.078 C 268.780 48.130,268.711 48.324,268.711 48.510 C 268.711 48.695,268.508 49.006,268.260 49.201 C 268.012 49.396,267.809 49.646,267.809 49.755 C 267.809 49.865,267.739 49.955,267.653 49.955 C 267.567 49.955,267.352 50.340,267.174 50.812 C 266.996 51.283,266.798 51.709,266.734 51.758 C 266.398 52.019,265.431 53.686,265.185 54.425 C 265.031 54.893,264.669 55.600,264.382 55.996 C 263.840 56.746,263.580 57.242,263.013 58.611 C 262.828 59.058,262.402 59.811,262.067 60.284 C 261.731 60.758,261.309 61.610,261.130 62.178 C 260.686 63.586,260.332 64.389,259.920 64.923 C 259.470 65.507,259.111 67.269,259.184 68.530 C 259.267 69.940,259.724 69.977,261.013 68.678 C 262.040 67.645,263.855 66.005,263.973 66.005 C 264.170 66.005,265.377 64.553,265.881 63.711 C 266.194 63.188,266.518 62.759,266.601 62.759 C 266.845 62.759,267.447 62.003,267.750 61.317 C 267.878 61.027,268.887 60.054,269.060 60.054 C 269.117 60.054,269.280 59.791,269.422 59.470 C 269.751 58.728,270.718 57.349,270.909 57.349 C 270.989 57.349,271.055 57.227,271.055 57.078 C 271.055 56.930,271.136 56.808,271.235 56.808 C 271.335 56.808,271.416 56.723,271.416 56.620 C 271.416 56.517,271.494 56.334,271.590 56.214 C 273.080 54.358,273.439 53.819,273.838 52.840 C 273.970 52.514,274.542 51.583,275.343 50.390 C 275.667 49.906,276.012 49.216,276.109 48.857 C 276.206 48.497,276.553 47.847,276.882 47.411 C 277.694 46.333,277.747 46.174,278.641 42.200 C 278.763 41.655,278.976 41.036,279.113 40.826 C 279.530 40.186,279.659 36.381,279.284 35.808 C 278.876 35.186,278.742 35.218,277.827 36.159 M123.084 91.244 C 121.989 91.393,120.760 91.829,120.570 92.137 C 120.459 92.318,118.360 93.131,117.524 93.318 C 117.243 93.380,116.675 93.759,116.262 94.159 C 115.848 94.559,115.144 95.053,114.698 95.257 C 114.252 95.460,113.641 95.901,113.341 96.235 C 113.041 96.570,112.710 96.844,112.606 96.844 C 112.501 96.844,112.016 97.211,111.528 97.661 C 111.040 98.110,110.369 98.698,110.036 98.968 C 109.178 99.666,108.203 100.644,107.574 101.439 C 107.277 101.815,106.693 102.486,106.277 102.931 C 105.861 103.376,105.393 104.010,105.236 104.340 C 105.080 104.670,104.708 105.114,104.409 105.326 C 104.111 105.539,103.666 106.110,103.420 106.595 C 103.174 107.081,102.773 107.609,102.528 107.769 C 102.283 107.930,101.829 108.479,101.519 108.990 C 101.208 109.501,100.726 110.162,100.447 110.460 C 99.913 111.029,99.008 112.616,99.008 112.984 C 99.008 113.103,98.740 113.476,98.412 113.814 C 98.084 114.151,97.581 114.914,97.294 115.509 C 97.006 116.105,96.724 116.632,96.667 116.682 C 96.335 116.972,95.401 118.301,95.401 118.484 C 95.401 118.690,95.312 118.917,94.603 120.514 C 94.437 120.886,94.225 121.190,94.130 121.190 C 94.036 121.190,93.959 121.312,93.959 121.461 C 93.959 121.610,93.898 121.732,93.823 121.732 C 93.657 121.733,93.172 122.927,92.792 124.272 C 92.635 124.826,92.367 125.437,92.196 125.629 C 91.591 126.309,90.903 128.267,90.887 129.353 C 90.881 129.764,90.397 131.267,90.060 131.921 C 88.406 135.131,88.562 143.162,90.306 144.622 C 91.349 145.495,91.407 145.537,91.584 145.537 C 91.676 145.537,91.851 145.658,91.975 145.807 C 92.321 146.224,94.983 146.160,96.664 145.694 C 97.408 145.488,98.198 145.277,98.420 145.227 C 98.642 145.176,99.170 144.831,99.592 144.460 C 100.015 144.090,100.685 143.673,101.082 143.534 C 101.479 143.396,102.087 142.994,102.435 142.642 C 102.782 142.290,103.512 141.672,104.058 141.268 C 104.603 140.865,105.467 140.139,105.977 139.654 C 106.488 139.170,107.096 138.599,107.330 138.386 C 107.564 138.173,107.958 137.793,108.206 137.541 C 112.168 133.525,113.796 131.795,113.796 131.603 C 113.796 131.483,114.330 130.838,115.300 129.786 C 115.680 129.373,116.151 128.690,116.345 128.269 C 116.539 127.847,117.060 127.146,117.502 126.711 C 117.943 126.275,118.305 125.788,118.305 125.629 C 118.305 125.469,118.368 125.338,118.446 125.338 C 118.675 125.338,120.289 123.680,120.289 123.445 C 120.289 123.327,120.696 122.751,121.195 122.165 C 122.337 120.822,122.287 120.894,122.761 119.922 C 122.981 119.472,123.403 118.925,123.699 118.706 C 123.996 118.487,124.393 117.962,124.581 117.540 C 124.895 116.837,125.772 115.780,126.040 115.780 C 126.102 115.780,126.254 115.548,126.380 115.265 C 126.505 114.982,126.931 114.400,127.325 113.973 C 127.720 113.545,128.043 113.134,128.043 113.060 C 128.043 112.985,128.107 112.898,128.186 112.864 C 128.264 112.831,128.600 112.358,128.933 111.812 C 129.265 111.267,129.685 110.717,129.865 110.590 C 130.046 110.463,130.455 109.921,130.775 109.387 C 131.128 108.796,131.618 108.268,132.022 108.040 C 132.940 107.525,133.900 106.124,134.443 104.509 C 134.989 102.884,134.297 97.020,133.400 95.670 C 133.269 95.473,133.051 94.963,132.916 94.538 C 132.657 93.725,131.491 92.515,130.151 91.669 C 129.366 91.173,125.371 90.933,123.084 91.244 M186.768 98.563 C 186.299 99.006,185.842 99.369,185.753 99.369 C 185.477 99.369,184.778 100.148,184.416 100.858 C 184.227 101.230,183.781 101.848,183.425 102.229 C 182.718 102.987,182.326 103.580,182.326 103.893 C 182.326 104.307,181.686 105.432,181.110 106.029 C 180.782 106.369,180.257 107.168,179.944 107.805 C 179.630 108.442,179.190 109.083,178.966 109.230 C 178.741 109.377,178.421 109.856,178.254 110.294 C 178.086 110.732,177.879 111.091,177.793 111.091 C 177.708 111.091,177.638 111.178,177.638 111.284 C 177.638 111.511,177.188 111.992,176.974 111.994 C 176.893 111.995,176.465 112.584,176.024 113.302 C 175.582 114.020,174.958 114.889,174.636 115.233 C 174.314 115.577,173.832 116.307,173.565 116.856 C 173.298 117.405,173.020 117.894,172.949 117.944 C 172.264 118.418,172.210 119.939,172.846 120.830 C 173.090 121.171,173.435 121.780,173.970 122.813 C 174.465 123.770,175.002 124.436,175.277 124.436 C 175.385 124.436,175.473 124.508,175.473 124.595 C 175.473 124.682,175.967 125.270,176.570 125.902 C 177.173 126.534,177.897 127.335,178.177 127.683 C 178.458 128.030,179.202 128.580,179.831 128.906 C 180.460 129.232,181.299 129.803,181.696 130.175 C 182.092 130.547,182.753 130.961,183.164 131.093 C 183.575 131.226,184.103 131.511,184.336 131.727 C 184.934 132.279,185.672 132.645,186.925 133.009 C 188.586 133.493,189.073 133.687,189.270 133.943 C 189.881 134.743,192.735 134.410,193.469 133.454 C 194.397 132.243,194.495 126.832,193.669 122.362 C 193.311 120.429,192.978 117.924,192.863 116.304 C 192.738 114.541,192.471 113.259,192.003 112.162 C 191.667 111.377,191.185 109.391,190.978 107.935 C 190.701 105.994,190.470 104.820,190.296 104.481 C 189.504 102.930,189.290 102.437,189.155 101.849 C 188.650 99.655,188.361 98.802,187.904 98.157 L 187.621 97.757 186.768 98.563 M334.338 99.149 C 334.180 99.320,333.819 99.892,333.534 100.422 C 333.250 100.952,332.828 101.534,332.597 101.716 C 332.141 102.075,331.420 103.323,331.231 104.082 C 331.166 104.343,330.747 104.945,330.299 105.418 C 329.852 105.892,329.486 106.412,329.486 106.575 C 329.486 106.738,329.090 107.315,328.607 107.857 C 327.719 108.854,326.961 110.076,326.961 110.511 C 326.961 110.641,326.596 111.118,326.150 111.571 C 325.703 112.023,325.338 112.494,325.338 112.616 C 325.338 112.739,324.912 113.278,324.391 113.814 C 323.870 114.350,323.284 115.092,323.088 115.464 C 322.892 115.836,322.669 116.141,322.592 116.141 C 322.515 116.141,322.453 116.233,322.453 116.345 C 322.453 116.457,322.299 116.682,322.111 116.845 C 320.859 117.932,320.905 120.707,322.200 122.130 C 322.505 122.465,322.979 123.121,323.252 123.588 C 323.525 124.054,323.974 124.569,324.249 124.731 C 324.523 124.894,324.894 125.273,325.072 125.575 C 325.556 126.394,325.927 126.780,326.235 126.785 C 326.386 126.787,326.865 127.193,327.298 127.687 C 327.731 128.180,328.156 128.584,328.242 128.584 C 328.506 128.584,329.833 129.564,329.840 129.764 C 329.848 129.981,331.527 131.012,332.191 131.208 C 332.439 131.281,332.951 131.605,333.328 131.927 C 333.955 132.463,334.790 132.790,337.331 133.497 C 337.728 133.608,338.174 133.794,338.323 133.911 C 339.756 135.039,341.874 134.595,342.225 133.093 C 342.283 132.845,342.443 132.294,342.581 131.869 C 342.911 130.850,342.901 126.923,342.561 124.436 C 342.418 123.395,342.299 122.096,342.295 121.551 C 342.291 121.005,342.212 120.275,342.119 119.928 C 342.025 119.581,341.870 118.565,341.773 117.671 C 341.676 116.778,341.464 115.682,341.302 115.237 C 340.923 114.200,340.596 112.612,340.224 110.009 C 339.861 107.468,339.694 106.771,339.146 105.500 C 338.730 104.538,338.398 103.406,337.930 101.353 C 337.806 100.807,337.538 100.036,337.335 99.639 L 336.966 98.918 335.796 98.879 C 334.887 98.848,334.562 98.909,334.338 99.149 M167.944 126.979 C 167.523 127.278,167.178 127.639,167.178 127.783 C 167.178 127.926,167.109 128.043,167.025 128.043 C 166.053 128.043,165.906 134.034,166.845 135.354 C 166.918 135.457,167.069 135.904,167.180 136.346 C 167.600 138.020,167.709 138.436,167.943 139.263 C 168.075 139.731,168.382 140.339,168.625 140.616 C 169.180 141.246,169.883 142.264,169.883 142.437 C 169.883 142.604,170.546 143.269,171.190 143.750 C 171.463 143.953,171.687 144.216,171.687 144.332 C 171.689 144.553,172.266 144.968,173.707 145.783 C 174.173 146.047,174.660 146.408,174.789 146.585 C 175.882 148.089,184.670 147.828,186.497 146.237 C 186.931 145.859,187.488 145.446,187.735 145.318 C 187.982 145.190,188.368 144.883,188.593 144.635 C 188.818 144.387,189.386 143.798,189.857 143.326 C 191.295 141.885,190.888 139.596,189.117 139.165 C 187.413 138.751,185.638 138.069,184.850 137.527 C 184.332 137.171,183.789 136.880,183.641 136.880 C 183.494 136.880,183.159 136.764,182.895 136.621 C 182.632 136.479,182.193 136.315,181.920 136.257 C 181.647 136.199,181.127 135.864,180.765 135.512 C 180.403 135.160,179.774 134.715,179.368 134.524 C 178.962 134.333,178.315 133.851,177.930 133.454 C 177.545 133.057,177.129 132.732,177.005 132.732 C 176.881 132.732,176.690 132.624,176.580 132.491 C 176.470 132.359,176.075 132.149,175.701 132.025 C 175.239 131.871,174.933 131.617,174.741 131.229 C 174.569 130.879,174.129 130.483,173.607 130.207 C 173.138 129.959,172.615 129.546,172.446 129.288 C 172.033 128.662,171.711 128.361,171.010 127.949 C 170.688 127.760,170.423 127.521,170.422 127.418 C 170.419 127.192,169.258 126.417,168.939 126.428 C 168.813 126.433,168.366 126.681,167.944 126.979 M317.493 126.596 C 317.295 126.679,316.872 126.845,316.553 126.963 C 316.141 127.117,315.855 127.421,315.561 128.017 C 314.784 129.594,315.075 136.898,315.930 137.274 C 316.061 137.332,316.921 139.343,317.136 140.095 C 317.202 140.326,317.538 140.805,317.883 141.160 C 318.228 141.515,318.673 142.154,318.874 142.580 C 319.266 143.415,320.754 144.825,321.969 145.513 C 322.384 145.748,323.007 146.158,323.354 146.423 C 324.562 147.345,324.865 147.408,328.436 147.483 C 332.431 147.567,334.802 146.993,335.798 145.702 C 335.848 145.638,336.084 145.524,336.322 145.449 C 336.786 145.305,338.683 143.412,338.683 143.094 C 338.683 143.040,338.894 142.785,339.152 142.527 C 339.582 142.097,339.611 141.975,339.502 141.047 C 339.329 139.564,339.084 139.410,335.375 138.462 C 334.894 138.339,334.279 138.027,334.008 137.767 C 333.562 137.341,331.315 136.339,330.805 136.339 C 330.692 136.339,330.326 136.075,329.992 135.753 C 329.659 135.431,328.901 134.933,328.309 134.647 C 327.716 134.362,326.854 133.777,326.393 133.349 C 325.931 132.921,325.180 132.395,324.724 132.180 C 324.268 131.966,323.895 131.716,323.895 131.624 C 323.895 131.363,322.830 130.388,322.544 130.388 C 322.403 130.388,322.061 130.092,321.784 129.731 C 321.112 128.855,320.260 128.043,320.013 128.043 C 319.851 128.043,319.387 127.553,319.386 127.380 C 319.384 127.199,318.258 126.415,318.023 126.432 C 317.930 126.439,317.692 126.513,317.493 126.596 " stroke="none" fill="#000000" fill-rule="evenodd"></path></g></svg>